<?xml version="1.0" standalone="no"?>
<!DOCTYPE svg PUBLIC "-//W3C//DTD SVG 1.1//EN" "http://www.w3.org/Graphics/SVG/1.1/DTD/svg11.dtd" >
<svg xmlns="http://www.w3.org/2000/svg">
<metadata></metadata>
<defs>
<font id="webfontregular" horiz-adv-x="1652" >
<font-face units-per-em="2048" ascent="1536" descent="-512" />
<missing-glyph horiz-adv-x="485" />
<glyph unicode="&#xfb01;" horiz-adv-x="1030" d="M70 727v121h137v385q0 143 65.5 207.5t171.5 64.5q78 0 122 -25.5t79 -66.5l-82 -94q-20 27 -42.5 42t-65.5 15q-47 0 -76 -29.5t-29 -113.5v-385h527v-848h-144v727h-383v-727h-143v727h-137zM700 1194q0 45 31 73.5t72 28.5t71.5 -28.5t30.5 -73.5t-30.5 -72.5 t-71.5 -27.5t-72 27.5t-31 72.5z" />
<glyph unicode="&#xfb02;" horiz-adv-x="1038" d="M70 727v121h137v311q0 86 27.5 150.5t74.5 108.5t107.5 65.5t128.5 21.5q66 0 125 -20.5t105 -61.5t74 -104.5t28 -151.5v-1167h-144v1157q0 115 -52 167t-136 52q-86 0 -140.5 -51t-54.5 -168v-309h217v-121h-217v-727h-143v727h-137z" />
<glyph unicode="&#xfb03;" horiz-adv-x="1554" d="M70 727v121h137v344q0 143 64.5 207.5t168.5 64.5q76 0 121 -25.5t80 -66.5l-78 -96q-18 27 -40.5 43t-67.5 16q-47 0 -76 -29.5t-29 -113.5v-344h383v385q0 143 64.5 207.5t171.5 64.5q78 0 122 -25.5t78 -66.5l-82 -94q-20 27 -42.5 42t-65.5 15q-47 0 -74.5 -29.5 t-27.5 -113.5v-385h524v-848h-144v727h-380v-727h-144v727h-383v-727h-143v727h-137zM1225 1194q0 45 31.5 73.5t72.5 28.5t71 -28.5t30 -73.5t-30 -72.5t-71 -27.5t-72.5 27.5t-31.5 72.5z" />
<glyph unicode="&#xfb04;" horiz-adv-x="1562" d="M70 727v121h137v344q0 143 64.5 207.5t168.5 64.5q76 0 121 -25.5t80 -66.5l-78 -96q-18 27 -40.5 43t-67.5 16q-47 0 -76 -29.5t-29 -113.5v-344h383v311q0 86 27.5 150.5t74 108.5t106.5 65.5t128 21.5q66 0 125 -20.5t105.5 -61.5t74 -104.5t27.5 -151.5v-1167h-144 v1157q0 115 -52 167t-136 52q-86 0 -139 -51t-53 -168v-309h215v-121h-215v-727h-144v727h-383v-727h-143v727h-137z" />
<glyph horiz-adv-x="0" />
<glyph horiz-adv-x="0" />
<glyph unicode="&#xd;" horiz-adv-x="485" />
<glyph unicode=" "  horiz-adv-x="485" />
<glyph unicode="&#x09;" horiz-adv-x="485" />
<glyph unicode="&#xa0;" horiz-adv-x="485" />
<glyph unicode="!" horiz-adv-x="497" d="M141 96q0 47 33 78t76 31t75.5 -31t32.5 -78t-32.5 -78.5t-75.5 -31.5t-76 31.5t-33 78.5zM168 1393h162l-25 -1004h-112z" />
<glyph unicode="&#x22;" horiz-adv-x="581" d="M82 1393h151l-16 -430h-119zM346 1393h154l-17 -430h-118z" />
<glyph unicode="#" horiz-adv-x="946" d="M59 582v114h164l56 222h-148v114h176l55 223h121l-57 -223h203l57 223h119l-55 -223h135v-114h-164l-55 -222h147v-114h-176l-55 -222h-121l55 222h-203l-53 -222h-121l56 222h-136zM344 696h203l55 222h-203z" />
<glyph unicode="$" horiz-adv-x="892" d="M37 213l110 59q35 -61 93.5 -108t150.5 -62v383q-150 41 -224.5 110t-74.5 185q0 109 81 182.5t218 84.5v217h105v-220q104 -16 172.5 -67t103.5 -111l-102 -65q-25 43 -67 78.5t-107 50.5v-340l12 -4q162 -47 240.5 -120t78.5 -192q0 -127 -86 -202.5t-245 -85.5v-230 h-105v232q-137 14 -227 80.5t-127 144.5zM227 786q0 -66 37 -100.5t127 -62.5v311q-78 -8 -121 -45t-43 -103zM496 100q98 8 146 52.5t48 111.5q0 74 -43 115t-151 74v-353z" />
<glyph unicode="%" horiz-adv-x="1566" d="M57 748q0 66 24.5 121t68 95t98.5 62.5t117 22.5q61 0 116.5 -22.5t97.5 -62.5t66.5 -95.5t24.5 -120.5q0 -66 -24.5 -121.5t-66.5 -95t-97.5 -62.5t-116.5 -23t-116.5 23t-99 62.5t-68 95t-24.5 121.5zM182 748q0 -86 54.5 -137.5t128.5 -51.5t127 51.5t53 137.5 t-53.5 137t-126.5 51q-74 0 -128.5 -51t-54.5 -137zM391 0l645 1032h142l-646 -1032h-141zM899 283q0 66 24.5 121t66.5 95t97.5 62.5t116.5 22.5t116.5 -22.5t97.5 -62.5t66.5 -95.5t24.5 -120.5q0 -66 -24.5 -120t-66.5 -94t-97.5 -62.5t-116.5 -22.5t-116.5 22.5 t-97.5 62.5t-66.5 94t-24.5 120zM1024 283q0 -86 53 -137.5t127 -51.5t127 51.5t53 137.5t-53 137t-127 51t-127 -51t-53 -137z" />
<glyph unicode="&#x26;" horiz-adv-x="1339" d="M88 362q0 86 27.5 153t76 119t114 95t140.5 84l-24 31q-113 139 -113 278q0 61 21.5 113.5t60.5 90.5t94.5 60.5t122.5 22.5q68 0 122 -21.5t92 -60.5t59.5 -90t21.5 -113q0 -106 -69.5 -187t-186.5 -149l307 -372q59 143 60 338h141q0 -135 -27.5 -249t-76.5 -206 l245 -299h-178l-149 180q-86 -96 -198 -146t-241 -50q-205 0 -323.5 102t-118.5 276zM242 371q0 -121 75.5 -188.5t212.5 -67.5q106 0 195.5 43t155.5 129l-361 436q-61 -35 -112.5 -70t-88 -75.5t-57 -92t-20.5 -114.5zM451 1124q0 -55 21.5 -102t59.5 -94l39 -47 q90 53 143.5 109.5t53.5 133.5q0 74 -44 118t-114 44q-72 0 -115.5 -43t-43.5 -119z" />
<glyph unicode="'" horiz-adv-x="315" d="M82 1393h151l-16 -430h-119z" />
<glyph unicode="(" horiz-adv-x="589" d="M90 596q0 156 31 287t80 239.5t112.5 194.5t128.5 153l90 -73q-59 -70 -112 -152t-93 -180t-63.5 -215t-23.5 -254q0 -139 23.5 -255t63.5 -214t93 -180t112 -152l-90 -74q-66 68 -129 154t-112 193.5t-80 238.5t-31 289z" />
<glyph unicode=")" horiz-adv-x="589" d="M57 -205q59 70 112.5 152t93.5 180t62.5 214t22.5 255q0 137 -22.5 254t-62.5 215t-93 180t-113 152l88 73q66 -68 129.5 -153.5t113.5 -193t81 -239.5t31 -288t-31 -287t-81 -239.5t-113.5 -194.5t-129.5 -154z" />
<glyph unicode="*" horiz-adv-x="806" d="M104 985l240 96l-240 97l64 110l201 -147l-31 252h129l-29 -252l201 147l63 -110l-241 -97l239 -96l-61 -111l-201 148l29 -254h-129l31 254l-201 -148z" />
<glyph unicode="+" horiz-adv-x="763" d="M80 453v127h235v256h131v-256h238v-127h-238v-256h-131v256h-235z" />
<glyph unicode="," horiz-adv-x="413" d="M90 -229l80 227q-33 10 -53.5 36.5t-20.5 65.5q0 47 34 78t77 31q45 0 78.5 -32t33.5 -79q0 -23 -8 -44t-18 -38l-123 -245h-80z" />
<glyph unicode="-" horiz-adv-x="585" d="M94 410v129h395v-129h-395z" />
<glyph unicode="." horiz-adv-x="413" d="M96 98q0 47 34 79t77 32q45 0 78.5 -32t33.5 -79t-33.5 -79.5t-78.5 -32.5q-43 0 -77 32.5t-34 79.5z" />
<glyph unicode="/" horiz-adv-x="876" d="M29 -262l616 1741h146l-617 -1741h-145z" />
<glyph unicode="0" horiz-adv-x="1251" d="M84 518q0 117 44 214t117.5 168t172 110t207.5 39q111 0 209 -39t171.5 -110t117.5 -168t44 -214q0 -115 -44 -213t-117.5 -170t-171.5 -111.5t-209 -39.5q-109 0 -207.5 39.5t-172 111.5t-117.5 170t-44 213zM236 518q0 -88 29.5 -162.5t81.5 -128t124 -84t154 -30.5 t153.5 30.5t123.5 84t83 128t31 162.5t-31 163t-83 127t-123.5 82t-153.5 30t-154 -30t-124 -82t-81.5 -127t-29.5 -163z" />
<glyph unicode="1" horiz-adv-x="581" d="M49 909v123h375v-1032h-148v909h-227z" />
<glyph unicode="2" horiz-adv-x="964" d="M59 0v18l416 381q102 92 160.5 168t58.5 160q0 96 -57 143.5t-145 47.5q-94 0 -157 -53.5t-97 -155.5l-132 36q35 141 139.5 222.5t246.5 81.5q162 0 256 -87.5t94 -228.5q0 -106 -68.5 -202.5t-181.5 -196.5l-166 -141q-16 -14 -32.5 -27.5t-33.5 -24.5q-18 -12 -36 -22 q20 2 43 4q18 2 36.5 3t34.5 1h428v-127h-807z" />
<glyph unicode="3" horiz-adv-x="1011" d="M45 55l125 64q45 -98 125 -149.5t192 -51.5q59 0 111.5 19.5t92.5 57.5t63.5 92t23.5 126q0 139 -81 212t-222 73q-55 0 -95 -10.5t-71 -26.5l-14 20l317 369q10 12 20.5 23.5t20.5 21.5t23 20q-16 -2 -38 -4t-34 -2h-29h-423v123h745v-14l-309 -361q-10 -12 -19.5 -21 t-19.5 -17.5t-23 -16.5q86 0 161 -27.5t128 -78t84 -123t31 -162.5q0 -94 -33 -172t-92.5 -133.5t-140.5 -86t-177 -30.5q-160 0 -273.5 71.5t-168.5 194.5z" />
<glyph unicode="4" horiz-adv-x="1069" d="M43 43v70l784 940h19v-889h153v-121h-153v-236h-146v236h-657zM225 158q16 2 31.5 3t33 2t34.5 1h376v475q0 16 1 33.5t4 34.5q2 18 4 38q-8 -12 -18.5 -25t-23 -29.5t-22.5 -28.5l-344 -431q-12 -14 -24.5 -26t-23.5 -23.5t-28 -23.5z" />
<glyph unicode="5" horiz-adv-x="993" d="M63 12l121 68q41 -72 109.5 -117t179.5 -45q131 0 210 81t79 210q0 131 -75 209t-220 78q-106 0 -173 -34t-114 -75l-18 6v639h672v-123h-547v-342q35 23 86 38.5t125 15.5q92 0 168.5 -31t132 -85t85 -130t29.5 -166t-31.5 -167t-89 -133t-139.5 -88t-180 -32 q-154 0 -258 64.5t-152 158.5z" />
<glyph unicode="6" horiz-adv-x="1040" d="M86 395q0 92 37 174t96 168l348 512h162l-280 -413q-27 -37 -62 -72q-18 -20 -37 -37q41 33 92.5 53.5t112.5 20.5q86 0 159.5 -30t127 -83t84 -128t30.5 -163q0 -90 -32.5 -165.5t-91 -131t-138.5 -86t-172 -30.5t-172 29.5t-138 84t-92 130t-34 167.5zM231 397 q0 -61 20.5 -113.5t57.5 -90t90 -59t121 -21.5q63 0 116.5 21.5t91.5 59t59.5 90t21.5 113.5q0 129 -77 208t-212 79q-66 0 -119 -22.5t-91 -62.5t-58.5 -92t-20.5 -110z" />
<glyph unicode="7" horiz-adv-x="923" d="M68 909v123h798v-18l-563 -1207h-147l516 1102h-604z" />
<glyph unicode="8" horiz-adv-x="1064" d="M84 362q0 123 73.5 210t194.5 122q-84 33 -132 98.5t-48 157.5q0 68 26.5 125.5t73.5 100.5t114 66.5t146 23.5q82 0 149 -23.5t114 -66.5t73.5 -100.5t26.5 -125.5q0 -92 -48 -157.5t-132 -100.5q121 -35 194.5 -121t73.5 -209q0 -84 -32.5 -153.5t-92 -120.5 t-143 -78.5t-183.5 -27.5q-98 0 -181 27.5t-142 78.5t-92 121t-33 153zM229 371q0 -119 83 -188.5t220 -69.5q135 0 219.5 69.5t84.5 188.5t-84 190.5t-220 71.5q-135 0 -219 -72t-84 -190zM315 948q0 -90 59.5 -144t157.5 -54t158 54t60 144q0 88 -60.5 142.5t-157.5 54.5 q-98 0 -157.5 -54.5t-59.5 -142.5z" />
<glyph unicode="9" horiz-adv-x="1052" d="M86 631q0 90 34 166.5t93 132t139 87.5t174 32q92 0 173 -30t140.5 -85t93.5 -132t34 -169q0 -94 -38 -174t-98 -172l-319 -480h-162l262 392q12 18 27.5 35.5t30.5 31.5q16 16 35 33q-41 -35 -96.5 -55.5t-110.5 -20.5q-88 0 -164 30t-131.5 84t-86 129t-30.5 165z M231 631q0 -129 80 -210t215 -81q68 0 121 23.5t92 63.5t59.5 92t20.5 112q0 61 -21.5 114.5t-59.5 91t-92 60.5t-120 23t-120 -21.5t-93 -60.5t-60.5 -91.5t-21.5 -115.5z" />
<glyph unicode=":" horiz-adv-x="434" d="M106 98q0 47 34 80t77 33q45 0 79 -33t34 -80t-34 -79.5t-79 -32.5q-43 0 -77 32.5t-34 79.5zM106 557q0 47 34 80t77 33q45 0 79 -33t34 -80t-34 -80t-79 -33q-43 0 -77 33t-34 80z" />
<glyph unicode=";" horiz-adv-x="434" d="M100 -229l80 227q-33 10 -53.5 36.5t-20.5 65.5q0 47 34 78t77 31q45 0 79 -32t34 -79q0 -23 -8.5 -43t-18.5 -39l-123 -245h-80zM106 557q0 47 34 80t77 33q45 0 79 -33t34 -80t-34 -80t-79 -33q-43 0 -77 33t-34 80z" />
<glyph unicode="&#x3c;" horiz-adv-x="729" d="M74 487v21l555 295v-135l-340 -170l340 -170v-135z" />
<glyph unicode="=" horiz-adv-x="763" d="M88 319v127h588v-127h-588zM88 586v125h588v-125h-588z" />
<glyph unicode="&#x3e;" horiz-adv-x="729" d="M100 193v135l340 170l-340 170v135l555 -295v-21z" />
<glyph unicode="?" horiz-adv-x="962" d="M55 1161q51 123 154.5 185.5t245.5 62.5q90 0 164.5 -28.5t128 -80t83 -123t29.5 -159.5q0 -82 -26.5 -150.5t-75.5 -119t-117 -81t-149 -36.5v-248h-136v362h68q68 0 122 21.5t91 58.5t56.5 86.5t19.5 106.5q0 123 -71 191.5t-187 68.5q-104 0 -169 -43t-112 -139z M313 96q0 47 33 78t76 31t75.5 -31t32.5 -78t-32.5 -78.5t-75.5 -31.5t-76 31.5t-33 78.5z" />
<glyph unicode="@" horiz-adv-x="1814" d="M100 387q0 176 65.5 325.5t176.5 258t259.5 169t313.5 60.5q174 0 320.5 -57.5t253 -158.5t166 -239.5t59.5 -300.5q0 -119 -23.5 -204.5t-66.5 -142t-101.5 -83t-125.5 -26.5q-98 0 -159.5 47t-78.5 145q-45 -100 -119.5 -148t-175.5 -48q-76 0 -141.5 28.5t-113.5 80.5 t-75.5 124t-27.5 158t27.5 158.5t75.5 126t112.5 83t140.5 29.5q100 0 168 -49t105 -127l-5 156h142v-473q0 -86 28.5 -133.5t100.5 -47.5q80 0 133 81t53 263q0 139 -47 257t-134 204t-211 134t-280 48q-152 0 -276.5 -54t-213.5 -147t-139 -221t-50 -276q0 -150 48 -276.5 t137 -220t215 -145.5t282 -52q92 0 177 19.5t158 60.5l54 -105q-168 -90 -387 -90q-172 0 -321.5 57.5t-260.5 164t-174.5 256t-63.5 331.5zM653 375q0 -57 17.5 -107.5t49.5 -87.5t76 -57.5t97 -20.5q51 0 95 21.5t77 58.5t51.5 87t18.5 106q0 57 -18.5 107t-51.5 88 t-77 59.5t-95 21.5q-53 0 -97 -21.5t-76 -59.5t-49.5 -88t-17.5 -107z" />
<glyph unicode="A" horiz-adv-x="1341" d="M76 0l577 1407h25l590 -1407h-156l-127 313h-639l-125 -313h-145zM397 440h537l-215 533q-10 25 -19.5 53.5t-17.5 53t-12 41t-4 18.5q0 -2 -5.5 -18.5t-13.5 -41t-17 -52.5t-20 -52z" />
<glyph unicode="B" horiz-adv-x="1232" d="M190 0v1393h461q100 0 176 -28t125 -75t74 -112.5t25 -139.5q0 -109 -48.5 -185.5t-154.5 -111.5q131 -29 201.5 -115.5t70.5 -234.5q0 -84 -25.5 -155.5t-78.5 -124t-135 -82t-193 -29.5h-498zM338 131h340q158 0 225.5 75t67.5 193q0 127 -74 198t-227 71h-332v-537z M338 797h321q131 0 187.5 64.5t56.5 166.5t-60.5 168t-203.5 66h-301v-465z" />
<glyph unicode="C" horiz-adv-x="1486" d="M111 696q0 158 56 289t152.5 225.5t227.5 146.5t278 52q373 0 553 -270l-112 -82q-68 100 -178.5 159.5t-262.5 59.5q-123 0 -225 -44t-177 -122t-117 -183.5t-42 -230.5t42 -230.5t117 -183t177 -121.5t225 -44q154 0 268.5 61.5t190.5 171.5l115 -80 q-92 -135 -239 -210.5t-335 -75.5q-147 0 -278 52t-227.5 146t-152.5 225.5t-56 288.5z" />
<glyph unicode="D" horiz-adv-x="1392" d="M190 0v1393h338q174 0 313.5 -49.5t238 -140.5t150.5 -220t52 -287t-52 -286.5t-149.5 -220t-238 -140.5t-314.5 -49h-338zM338 133h180q154 0 268.5 41t190.5 116t112.5 178t36.5 228t-36.5 228.5t-112.5 178.5t-190.5 116t-268.5 41h-180v-1127z" />
<glyph unicode="E" horiz-adv-x="1187" d="M190 0v1393h848v-131h-700v-498h625v-129h-625v-504h729v-131h-877z" />
<glyph unicode="F" horiz-adv-x="1138" d="M190 0v1393h838v-131h-690v-533h627v-133h-627v-596h-148z" />
<glyph unicode="G" horiz-adv-x="1521" d="M111 696q0 158 55 289t151.5 225.5t227.5 146.5t282 52q152 0 276 -44t210 -136l-101 -101q-68 72 -162 110t-223 38q-123 0 -226 -44t-178 -122t-117 -183.5t-42 -230.5t42 -230.5t119 -183t182.5 -121.5t232.5 -44q143 0 244.5 36.5t166.5 90.5v286h-413v132h553v-486 q-78 -76 -216 -134t-335 -58q-156 0 -289 52t-231.5 146t-153.5 225.5t-55 288.5z" />
<glyph unicode="H" horiz-adv-x="1419" d="M190 0v1393h148v-650h745v650h148v-1393h-148v610h-745v-610h-148z" />
<glyph unicode="I" horiz-adv-x="542" d="M197 0v1393h149v-1393h-149z" />
<glyph unicode="J" horiz-adv-x="989" d="M68 193l120 75q41 -72 96.5 -111.5t137.5 -39.5q104 0 166.5 59.5t62.5 194.5v1022h150v-1026q0 -96 -28 -168t-78 -120t-118.5 -71.5t-148.5 -23.5q-139 0 -226 60t-134 149z" />
<glyph unicode="K" horiz-adv-x="1243" d="M190 0v1393h148v-625q0 -47 -3 -95t-7 -87q23 43 49 87t47 70l532 650h168l-506 -623l564 -770h-181l-479 662l-184 -220v-442h-148z" />
<glyph unicode="L" horiz-adv-x="1079" d="M190 0v1393h148v-1262h657v-131h-805z" />
<glyph unicode="M" horiz-adv-x="1714" d="M190 0v1409h21l647 -809l643 809h23v-1409h-144v920q0 23 1 50t3 66t2 41q-2 -2 -25.5 -39t-39.5 -60.5t-33 -43.5l-422 -533h-24l-416 533q-16 18 -48 63t-41 60.5t-11 19.5l3 -40t4 -67.5t1 -49.5v-920h-144z" />
<glyph unicode="N" horiz-adv-x="1460" d="M190 0v1407h25l832 -983q14 -16 29.5 -37.5t40 -55.5t26.5 -36q0 2 -3 42t-5 66.5t-2 49.5v940h137v-1407h-25l-831 983q-14 16 -29.5 36.5t-40.5 53.5t-27 37q0 -4 2.5 -21.5t6.5 -65.5t4 -69v-940h-140z" />
<glyph unicode="O" d="M111 696q0 158 56 289t152.5 225.5t227.5 146.5t278 52q150 0 280 -52t227.5 -146.5t153.5 -225.5t56 -289t-56 -289t-153.5 -225t-227.5 -146t-280 -52q-147 0 -278 52t-227.5 146t-152.5 225.5t-56 288.5zM264 696q0 -125 42 -230.5t117 -183t178 -121.5t224 -44 q123 0 225.5 44t178.5 121.5t118 183t42 230.5t-42 230.5t-118 183.5t-178.5 122t-225.5 44q-121 0 -224 -44t-178 -122t-117 -183.5t-42 -230.5z" />
<glyph unicode="P" horiz-adv-x="1191" d="M190 0v1393h408q111 0 203 -27t156.5 -81t100.5 -135t36 -189q0 -106 -36 -187.5t-100.5 -135.5t-155.5 -82t-204 -28h-260v-528h-148zM338 659h252q182 0 267 79t85 223q0 143 -84 222t-268 79h-252v-603z" />
<glyph unicode="Q" d="M111 696q0 158 56 289t152.5 225.5t227.5 146.5t278 52q150 0 280 -52t227.5 -146.5t153.5 -225.5t56 -289t-55 -287.5t-154 -226.5l211 -225l-102 -86l-213 229q-86 -55 -188.5 -85.5t-215.5 -30.5q-147 0 -278 52t-227.5 146t-152.5 225.5t-56 288.5zM264 696 q0 -125 42 -230.5t117 -183t178.5 -121.5t223.5 -44q176 0 310 86l-211 229l100 86l213 -231q72 78 112 182t40 227q0 125 -42 230.5t-118 183.5t-178.5 122t-225.5 44q-121 0 -224 -44t-178 -122t-117 -183.5t-42 -230.5z" />
<glyph unicode="R" horiz-adv-x="1243" d="M190 0v1393h418q109 0 200 -26t156.5 -79t102.5 -133t37 -188q0 -154 -79 -253.5t-214 -140.5l340 -573h-174l-320 549q-16 -2 -32.5 -2h-32.5h-254v-547h-148zM338 674h262q172 0 261 72.5t89 220.5q0 152 -90 223.5t-260 71.5h-262v-588z" />
<glyph unicode="S" horiz-adv-x="1087" d="M59 266l123 66q25 -43 56.5 -83t73.5 -69.5t98.5 -47t130.5 -17.5q61 0 113.5 16t91 47t61 75t22.5 99q0 53 -16 94t-49 75t-82 63.5t-115 58.5l-110 51q-74 33 -131.5 70t-96.5 82t-59 100t-20 129q0 76 27.5 137.5t76.5 105.5t116.5 67.5t145.5 23.5q141 0 231.5 -58.5 t145.5 -150.5l-119 -74q-41 66 -100.5 109t-157.5 43q-104 0 -162.5 -54.5t-58.5 -144.5q0 -92 52 -144t169 -106l111 -51q86 -39 151.5 -81t109.5 -92t66.5 -112.5t22.5 -140.5q0 -86 -33 -154.5t-90 -115.5t-136 -72.5t-173 -25.5q-100 0 -178 23.5t-137.5 62.5t-101.5 90 t-69 106z" />
<glyph unicode="T" horiz-adv-x="1138" d="M68 1262v131h1003v-131h-428v-1262h-147v1262h-428z" />
<glyph unicode="U" horiz-adv-x="1355" d="M178 475v918h148v-908q0 -186 94 -278t258 -92q162 0 257 92t95 278v908h148v-918q0 -123 -38 -215t-105.5 -153.5t-159 -92t-197.5 -30.5t-197.5 30.5t-159 92t-105.5 153.5t-38 215z" />
<glyph unicode="V" horiz-adv-x="1343" d="M76 1393h160l382 -944q10 -27 21.5 -60t20 -62.5t18.5 -66.5q8 33 17.5 64.5t20.5 64.5t21 60l381 944h150l-580 -1407h-24z" />
<glyph unicode="W" horiz-adv-x="1951" d="M72 1393h157l293 -928q6 -23 18.5 -70t16.5 -63.5t4 -18.5q0 2 10.5 41t18.5 63.5t16 47.5l363 942h24l363 -942q8 -23 26.5 -86.5t18.5 -65.5q0 2 9 41t16.5 63.5t13.5 47.5l291 928h149l-459 -1407h-24l-375 991q-8 20 -15.5 42.5t-16.5 56.5t-9 36q0 -2 -10 -36 t-17.5 -56.5t-15.5 -42.5l-381 -991h-25z" />
<glyph unicode="X" horiz-adv-x="1300" d="M88 0l477 758l-401 635h168l276 -435q18 -33 28.5 -56t16.5 -40q4 14 12.5 35t30.5 61l275 435h162l-400 -635l481 -758h-167l-355 557q-20 33 -47 96q-25 -63 -43 -96l-352 -557h-162z" />
<glyph unicode="Y" horiz-adv-x="1249" d="M70 1393h168l335 -617q10 -20 20.5 -43.5t19 -44t20.5 -53.5q12 33 20.5 53.5t18.5 44t20 43.5l334 617h154l-473 -877v-516h-152v512z" />
<glyph unicode="Z" horiz-adv-x="1189" d="M80 0v23l778 1239h-668v131h897v-23l-776 -1239h781v-131h-1012z" />
<glyph unicode="[" horiz-adv-x="624" d="M156 -262v1741h395v-125h-252v-1491h252v-125h-395z" />
<glyph unicode="\" horiz-adv-x="876" d="M88 1479h143l617 -1741h-146z" />
<glyph unicode="]" horiz-adv-x="624" d="M74 -137h252v1491h-252v125h397v-1741h-397v125z" />
<glyph unicode="^" horiz-adv-x="854" d="M139 948l279 461h18l279 -461h-119l-168 256l-170 -256h-119z" />
<glyph unicode="_" horiz-adv-x="526" d="M-4 -135h534v-127h-534v127z" />
<glyph unicode="`" horiz-adv-x="1024" d="M268 1415h164l139 -395h-112z" />
<glyph unicode="a" horiz-adv-x="964" d="M92 242q0 66 25.5 113.5t68.5 79.5t101.5 47.5t126.5 15.5h264v20q0 123 -52.5 175t-146.5 52q-90 0 -148.5 -34.5t-99.5 -87.5l-88 79q55 76 140.5 120t205.5 44q70 0 131.5 -20.5t105.5 -63.5t69.5 -108.5t25.5 -153.5v-520h-143l6 127q-43 -66 -110.5 -104.5 t-170.5 -38.5q-135 0 -223 62.5t-88 195.5zM231 248q0 -147 205 -148q49 0 93 13.5t77 37t52.5 57.5t19.5 75v106h-254q-82 0 -137.5 -32.5t-55.5 -108.5z" />
<glyph unicode="b" horiz-adv-x="1128" d="M154 0v1479h141v-805q47 86 128 139t198 53q86 0 160.5 -33.5t130 -92t87 -139.5t31.5 -175q0 -96 -31.5 -177t-87 -139.5t-131.5 -92t-162 -33.5q-115 0 -199.5 55t-127.5 143l4 -182h-141zM289 426q0 -70 21.5 -128t61.5 -100t95 -65.5t123 -23.5q135 0 214 89t79 228 q0 68 -20.5 126t-59.5 99t-92.5 64.5t-120.5 23.5q-68 0 -123 -23.5t-95 -64.5t-61.5 -99t-21.5 -126z" />
<glyph unicode="c" horiz-adv-x="956" d="M98 424q0 92 34 173t93.5 141.5t139 94t174.5 33.5q115 0 194.5 -40t138.5 -111l-102 -84q-39 51 -95.5 79.5t-135.5 28.5q-68 0 -122.5 -23.5t-92 -66.5t-58 -100t-20.5 -125t20.5 -125t58 -100t92 -66.5t122.5 -23.5q88 0 145 31.5t98 78.5l99 -84q-59 -72 -141 -111.5 t-201 -39.5q-94 0 -174 33.5t-139.5 93t-93.5 140.5t-34 173z" />
<glyph unicode="d" horiz-adv-x="1128" d="M98 426q0 94 32 175t87 139.5t130 92t161 33.5q123 0 200.5 -53t125.5 -139v805h141v-1479h-141l4 182q-43 -88 -128 -143t-200 -55q-86 0 -162 33.5t-131 92t-87 139.5t-32 177zM246 426q0 -139 79 -228t214 -89q68 0 123 23.5t95 65.5t61.5 100t21.5 128 q0 68 -21.5 126t-61.5 99t-95.5 64.5t-122.5 23.5q-68 0 -121 -23.5t-92 -64.5t-59.5 -99t-20.5 -126z" />
<glyph unicode="e" horiz-adv-x="1056" d="M98 424q0 92 34 173t92.5 141.5t139 94t173.5 33.5q102 0 183 -36.5t136 -102t83 -155.5q25 -79 25 -169q0 -13 -1 -26h-721q14 -123 94 -198t221 -75q96 0 161.5 33t106.5 80l88 -86q-59 -66 -145 -106.5t-211 -40.5q-104 0 -189 33.5t-144.5 93t-92.5 140.5t-33 173z M244 485h575q-4 55 -23.5 102.5t-55 82.5t-86 55t-117.5 20q-123 0 -200 -71.5t-93 -188.5z" />
<glyph unicode="f" horiz-adv-x="651" d="M70 727v121h137v385q0 139 65.5 205.5t169.5 66.5q78 0 131.5 -28.5t83.5 -75.5l-94 -84q-20 27 -42.5 43t-65.5 16q-47 0 -76 -31.5t-29 -111.5v-385h228v-121h-228v-727h-143v727h-137z" />
<glyph unicode="g" horiz-adv-x="1128" d="M98 426q0 94 31 175t86 139.5t129 92t160 33.5q121 0 205 -56t129 -144l-4 182h143v-875q0 -113 -32 -193.5t-88 -133t-135 -78t-173 -25.5q-160 0 -265.5 65.5t-164.5 170.5l108 74q53 -88 129 -136.5t189 -48.5q137 0 213 74t76 242v190q-41 -82 -127 -136t-201 -54 q-86 0 -161 33.5t-130 92t-86 139.5t-31 177zM246 426q0 -139 79 -227t214 -88q68 0 123 23.5t95 65.5t61.5 99t21.5 127q0 68 -21.5 126t-61.5 99t-95.5 64.5t-122.5 23.5q-68 0 -121 -23.5t-92 -64.5t-59.5 -99t-20.5 -126z" />
<glyph unicode="h" horiz-adv-x="1056" d="M152 0v1479h143v-797q41 86 119 135t182 49q141 0 229 -92t88 -258v-516h-143v500q0 113 -52 174t-159 61q-119 0 -191.5 -70.5t-72.5 -197.5v-467h-143z" />
<glyph unicode="i" horiz-adv-x="454" d="M125 1194q0 45 30.5 73.5t71.5 28.5t72 -28.5t31 -73.5t-31 -72.5t-72 -27.5t-71.5 27.5t-30.5 72.5zM156 0v848h143v-848h-143z" />
<glyph unicode="j" horiz-adv-x="454" d="M-117 -371l80 86q20 -18 42 -32.5t56 -14.5q43 0 69 29t26 100v1051h143v-1049q0 -125 -62.5 -189.5t-164.5 -64.5q-66 0 -113 26t-76 58zM125 1194q0 45 30.5 73.5t71.5 28.5t72 -28.5t31 -73.5t-31 -72.5t-72 -27.5t-71.5 27.5t-30.5 72.5z" />
<glyph unicode="k" horiz-adv-x="948" d="M152 0v1479h143v-949q0 -63 -10 -120l403 438h166l-326 -356l377 -492h-170l-307 397l-133 -139v-258h-143z" />
<glyph unicode="l" horiz-adv-x="466" d="M162 0v1479h143v-1479h-143z" />
<glyph unicode="m" horiz-adv-x="1550" d="M152 0v848h143l-4 -160q41 86 108.5 132t157.5 46q100 0 163.5 -49t92.5 -129q47 86 124 132t169 46q139 0 220 -86t81 -237v-543h-141v524q0 102 -44 156.5t-143 54.5q-102 0 -164.5 -67.5t-62.5 -192.5v-475h-143v524q0 102 -43 156.5t-142 54.5q-102 0 -165.5 -66.5 t-63.5 -193.5v-475h-143z" />
<glyph unicode="n" horiz-adv-x="1056" d="M152 0v848h143l-4 -174q41 92 122 142t183 50q141 0 229 -92t88 -258v-516h-143v500q0 113 -52 174t-159 61q-117 0 -190.5 -70.5t-73.5 -197.5v-467h-143z" />
<glyph unicode="o" horiz-adv-x="1093" d="M98 424q0 92 35 173t95.5 141.5t142.5 94t178 33.5q94 0 176 -33.5t141.5 -94t94 -141.5t34.5 -173t-34.5 -173t-94 -140.5t-141.5 -93t-176 -33.5q-96 0 -178 33.5t-142.5 93t-95.5 140.5t-35 173zM244 424q0 -68 22.5 -126t62.5 -101t96 -67t124 -24t123 24t95 67 t61.5 101t21.5 126t-21.5 126t-61.5 101t-95.5 66.5t-122.5 23.5q-68 0 -124 -23.5t-96 -66.5t-62.5 -101t-22.5 -126z" />
<glyph unicode="p" horiz-adv-x="1128" d="M154 -434v1282h141l-4 -182q45 88 128 144t202 56q86 0 160.5 -33.5t130 -92t87 -139.5t31.5 -175q0 -96 -31.5 -177t-87 -139.5t-131 -92t-162.5 -33.5q-115 0 -198.5 54t-124.5 138v-610h-141zM289 426q0 -70 21.5 -128t61.5 -100t95 -65.5t123 -23.5q135 0 214 89 t79 228q0 68 -20.5 126t-59.5 99t-92.5 64.5t-120.5 23.5q-68 0 -123 -23.5t-95 -64.5t-61.5 -99t-21.5 -126z" />
<glyph unicode="q" horiz-adv-x="1130" d="M98 426q0 94 32 175t87 139.5t130 92t161 33.5q123 0 204 -56t126 -144l-4 182h143v-1282h-143v610q-41 -84 -125 -138t-199 -54q-86 0 -162 33.5t-131 92t-87 139.5t-32 177zM246 426q0 -139 79 -228t214 -89q68 0 123 23.5t95 65.5t61.5 100t21.5 128q0 68 -21.5 126 t-61.5 99t-95.5 64.5t-122.5 23.5q-68 0 -121 -23.5t-92 -64.5t-59.5 -99t-20.5 -126z" />
<glyph unicode="r" horiz-adv-x="731" d="M152 0v848h143l-4 -166q41 98 106.5 140t141.5 42q47 0 82.5 -10t64.5 -31l-55 -125q-20 14 -48 23.5t-69 9.5q-92 0 -155.5 -69.5t-63.5 -215.5v-446h-143z" />
<glyph unicode="s" horiz-adv-x="839" d="M74 180l110 64q37 -61 95.5 -102.5t150.5 -41.5q86 0 133 34t47 93q0 35 -14 57.5t-42 39t-69 30t-96 29.5q-49 14 -96 32.5t-82 47.5t-56.5 70.5t-21.5 101.5q0 111 81 171t198 60q98 0 167.5 -36.5t114.5 -100.5l-98 -76q-33 45 -78 71t-106 26q-70 0 -109 -30t-39 -79 q0 -31 10.5 -51.5t34 -35.5t62.5 -28.5t94 -29.5q53 -14 104.5 -34t90 -49.5t62 -72.5t23.5 -104q0 -109 -74.5 -180.5t-234.5 -71.5q-141 0 -231 58t-131 138z" />
<glyph unicode="t" horiz-adv-x="686" d="M70 727v121h131v291h141v-291h238v-121h-238v-473q0 -86 26.5 -117t73.5 -31q49 0 75 16.5t46 37.5l70 -97q-33 -33 -80 -57t-125 -24q-49 0 -90 14t-71.5 47t-48 85t-17.5 128v471h-131z" />
<glyph unicode="u" horiz-adv-x="1054" d="M143 328v520h144v-506q0 -111 52 -170t157 -59q121 0 192.5 71.5t71.5 196.5v467h143v-848h-143l4 172q-41 -90 -120 -140t-183 -50q-141 0 -229.5 91t-88.5 255z" />
<glyph unicode="v" horiz-adv-x="946" d="M51 848h158l225 -490q8 -20 17.5 -44.5t15.5 -46t10 -37t4 -17.5q0 2 3 17.5t9.5 37t14.5 46t18 44.5l222 490h147l-406 -864h-26z" />
<glyph unicode="w" horiz-adv-x="1398" d="M51 848h156l182 -467q16 -39 25.5 -75t13.5 -54q2 8 13.5 49t29.5 80l221 479h19l225 -477q18 -41 45 -133q0 2 3 15.5t8 32.5t12.5 41.5t15.5 43.5l182 465h146l-353 -866h-20l-234 510q-25 59 -29.5 77.5t-11.5 44.5q-8 -29 -13 -47t-28 -75l-239 -510h-21z" />
<glyph unicode="x" horiz-adv-x="962" d="M63 0l336 451l-290 397h170l159 -221q16 -23 30.5 -50.5t18.5 -37.5q2 8 12.5 34.5t28.5 53.5l162 221h158l-287 -387l338 -461h-172l-201 279q-18 29 -32.5 54t-20.5 38l-11 -25q-11 -24 -38 -67l-203 -279h-158z" />
<glyph unicode="y" horiz-adv-x="946" d="M51 848h158l240 -526q8 -20 16 -45t12 -48q6 -25 10 -51q4 27 11 51q4 23 11 44.5t17 48.5l222 526h147l-553 -1282h-147l217 506z" />
<glyph unicode="z" horiz-adv-x="854" d="M66 0v20l489 709h-436v119h667v-23l-493 -706h483v-119h-710z" />
<glyph unicode="{" horiz-adv-x="751" d="M51 553v123h119q57 0 88 30.5t31 112.5v365q0 90 22.5 147.5t61.5 90t87 45t101 12.5h117v-123h-109q-66 0 -100.5 -36t-34.5 -138v-379q0 -96 -38 -135t-95 -54q57 -10 95 -52t38 -136v-391q0 -102 35 -138t100 -36h109v-123h-117q-53 0 -101 12t-87 45t-61.5 90.5 t-22.5 147.5v379q0 82 -31 111.5t-88 29.5h-119z" />
<glyph unicode="|" horiz-adv-x="485" d="M174 -262v1741h139v-1741h-139z" />
<glyph unicode="}" horiz-adv-x="749" d="M74 -139h108q66 0 100.5 35.5t34.5 138.5v391q0 96 38 136t96 52q-57 10 -95.5 52.5t-38.5 138.5v377q0 102 -34.5 138t-100.5 36h-108v123h116q51 0 100.5 -12.5t87.5 -45t60.5 -90t22.5 -147.5v-365q0 -82 31.5 -112.5t89.5 -30.5h116v-123h-116q-57 0 -89 -29.5 t-32 -111.5v-379q0 -90 -22.5 -147.5t-60.5 -90.5t-87 -45t-101 -12h-116v123z" />
<glyph unicode="~" horiz-adv-x="804" d="M104 469q4 111 52.5 169t124.5 58q45 0 75.5 -18.5t65.5 -46.5q39 -35 56.5 -47.5t41.5 -12.5q35 0 51.5 30t22.5 91l108 -10q-6 -111 -52 -168t-124 -57q-43 0 -74.5 18.5t-66.5 46.5q-39 35 -56.5 46.5t-43.5 11.5q-61 0 -74 -121z" />
<glyph unicode="&#xa1;" horiz-adv-x="497" d="M141 1296q0 47 32 79t75 32t76.5 -32t33.5 -79t-33.5 -77.5t-76.5 -30.5t-75 30.5t-32 77.5zM168 0l25 1004h112l25 -1004h-162z" />
<glyph unicode="&#xa2;" horiz-adv-x="962" d="M96 424q0 86 29 162t81 134t122.5 95t154.5 47v221h92v-219q98 -6 172 -45t127 -104l-100 -82q-35 43 -82 70.5t-117 33.5v-628q74 6 124.5 35.5t86.5 74.5l99 -84q-57 -68 -131 -106.5t-179 -44.5v-222h-92v224q-84 10 -154.5 47t-122.5 95t-81 134t-29 162zM244 424 q0 -123 64.5 -209t174.5 -104v624q-111 -16 -175 -102t-64 -209z" />
<glyph unicode="&#xa3;" horiz-adv-x="1114" d="M57 170q0 80 56.5 129t144.5 49q41 0 79 -12t73 -33q-8 51 -29 108.5t-45 120.5h-197v113h150q-27 68 -45.5 136.5t-18.5 133.5q0 74 28 137.5t78 111.5t121.5 75t159.5 27q141 0 235.5 -65.5t139.5 -162.5l-117 -65q-41 80 -98 122t-160 42q-111 0 -176 -59.5 t-65 -168.5q0 -72 18.5 -135t42.5 -129h330v-113h-287q25 -68 43.5 -142.5t22.5 -164.5q57 -41 116.5 -77.5t130.5 -36.5q63 0 107.5 23.5t79.5 64.5l86 -88q-45 -55 -109.5 -91t-158.5 -36q-92 0 -164 39.5t-131 87.5q-33 -55 -92.5 -91t-135.5 -36q-98 0 -155.5 52 t-57.5 134zM168 166q0 -41 26.5 -64.5t73.5 -23.5q53 0 92.5 29.5t51.5 76.5q-37 29 -73 49.5t-73 20.5q-45 0 -71.5 -23.5t-26.5 -64.5z" />
<glyph unicode="&#xa4;" horiz-adv-x="1107" d="M59 209l179 178q-53 84 -54 193q0 109 58 194l-181 180l86 90l181 -178q98 80 233 80q66 0 122 -18.5t103 -53.5l172 170l89 -90l-175 -170q63 -92 64 -204q0 -57 -15.5 -108.5t-43.5 -94.5l172 -168l-88 -88l-170 168q-99 -76 -230 -76q-68 0 -129 21.5t-108 60.5 l-177 -174zM328 580q0 -109 64.5 -178.5t168.5 -69.5t168 69.5t64 178.5q0 106 -63.5 176.5t-168.5 70.5q-104 0 -168.5 -70.5t-64.5 -176.5z" />
<glyph unicode="&#xa5;" horiz-adv-x="1097" d="M96 1032h162l234 -434q12 -23 22 -47.5t18 -44.5q8 -23 17 -47q8 25 16 47q8 20 18.5 44.5t22.5 47.5l246 434h149l-235 -399h199v-115h-265l-84 -141h349v-115h-351v-262h-145v262h-350v115h346l-80 141h-266v115h203z" />
<glyph unicode="&#xa6;" horiz-adv-x="485" d="M174 -262v735h139v-735h-139zM174 752v727h139v-727h-139z" />
<glyph unicode="&#xa7;" horiz-adv-x="1013" d="M66 608q0 78 44.5 133t120.5 90q-41 63 -41 150q0 63 25 115.5t68 90.5t101 58.5t126 20.5q129 0 208 -57.5t122 -149.5l-119 -55q-29 61 -75 101t-132 40t-135 -42t-49 -118q0 -66 32.5 -106.5t112.5 -73.5l201 -80q145 -57 208.5 -128t63.5 -169q0 -76 -45 -130 t-117 -83q23 -31 35.5 -67.5t12.5 -84.5q0 -123 -87.5 -198.5t-246.5 -75.5q-139 0 -237.5 63.5t-141.5 157.5l117 58q35 -70 97 -114t159 -44q92 0 143 42t51 111q0 61 -40 98.5t-126 71.5l-184 72q-141 53 -206.5 123t-65.5 180zM203 625q0 -70 38 -111t134 -80l186 -72 q91 -32 150 -79q47 18 74.5 50t27.5 77q0 63 -38 104t-140 82l-201 80q-41 16 -76.5 38.5t-64.5 51.5q-47 -23 -68.5 -59.5t-21.5 -81.5z" />
<glyph unicode="&#xa8;" horiz-adv-x="1024" d="M244 1194q0 39 28.5 66.5t65.5 27.5t65.5 -27.5t28.5 -66.5q0 -41 -28.5 -67.5t-65.5 -26.5t-65.5 26.5t-28.5 67.5zM592 1194q0 39 28.5 66.5t65.5 27.5t65.5 -27.5t28.5 -66.5q0 -41 -28.5 -67.5t-65.5 -26.5t-65.5 26.5t-28.5 67.5z" />
<glyph unicode="&#xa9;" horiz-adv-x="1224" d="M80 516q0 115 43 213t115.5 169t170 111t205.5 40q106 0 203.5 -40t169.5 -111t115 -169t43 -213t-43 -212t-115 -167.5t-169.5 -110.5t-203.5 -40q-109 0 -206 40t-169.5 110.5t-115.5 167.5t-43 212zM168 516q0 -98 35 -180t95 -142.5t141 -93t175 -32.5q92 0 174 32.5 t141.5 93t94.5 142.5t35 180t-35 181t-94.5 143.5t-141 93.5t-174.5 33q-94 0 -175 -33t-141 -93.5t-95 -143.5t-35 -181zM317 516q0 66 24 122t63.5 98t94 65.5t117.5 23.5q84 0 138.5 -29.5t97.5 -76.5l-84 -78q-53 70 -143 70q-78 0 -127 -54.5t-49 -140.5q0 -82 49 -137 t127 -55q53 0 89 21.5t60 51.5l84 -78q-39 -45 -95 -76.5t-142 -31.5q-66 0 -121.5 23.5t-95 64.5t-63.5 96.5t-24 120.5z" />
<glyph unicode="&#xaa;" horiz-adv-x="823" d="M80 522q0 55 22.5 96t61.5 68t90 40t111 13h217v6q-2 113 -46 152t-122 39q-82 0 -130 -33t-77 -69l-82 73q41 59 114.5 100.5t184.5 41.5q61 0 113.5 -16.5t92.5 -53.5t62.5 -94.5t22.5 -136.5v-433h-133l2 95q-35 -51 -95.5 -81t-138.5 -30q-57 0 -106 14.5t-86 42 t-57.5 69.5t-20.5 97zM215 528q0 -63 44 -92.5t122 -29.5q84 0 142.5 38.5t58.5 116.5v86h-203q-72 0 -118 -26.5t-46 -92.5z" />
<glyph unicode="&#xab;" horiz-adv-x="815" d="M78 401v17l192 321h148l-197 -329l197 -334h-148zM397 401v17l191 321h149l-196 -329l196 -334h-149z" />
<glyph unicode="&#xac;" horiz-adv-x="761" d="M80 549v125h602v-350h-133v225h-469z" />
<glyph unicode="&#xad;" horiz-adv-x="585" d="M94 410v129h395v-129h-395z" />
<glyph unicode="&#xae;" horiz-adv-x="1052" d="M78 981q0 96 34.5 177t95 139.5t141.5 91t173 32.5t175 -32.5t144.5 -91t97.5 -139.5t36 -177q0 -94 -36 -175t-97.5 -139.5t-144.5 -91t-175 -32.5t-173 32.5t-141.5 91t-95 139.5t-34.5 175zM162 981q0 -84 26.5 -151.5t74.5 -114.5t114.5 -74t144.5 -27q80 0 148.5 27 t118 74t77 114.5t27.5 151.5t-27.5 151.5t-77 115.5t-118 75t-148.5 27q-78 0 -144.5 -27t-114.5 -75t-74.5 -115.5t-26.5 -151.5zM365 741v486h172q92 0 138 -43t46 -113q0 -113 -100 -143l112 -187h-98l-103 174h-79v-174h-88zM453 983h84q47 0 70.5 22.5t23.5 63.5 q0 82 -94 82h-84v-168z" />
<glyph unicode="&#xaf;" horiz-adv-x="1024" d="M276 1104v113h472v-113h-472z" />
<glyph unicode="&#xb0;" horiz-adv-x="665" d="M94 817q0 49 18.5 91t51.5 74t77 49.5t93 17.5t93 -17.5t76 -49.5t51 -74t19 -91t-19 -91t-51 -72.5t-76 -49t-93 -18.5t-93 18.5t-77 49t-51.5 72.5t-18.5 91zM201 817q0 -59 37 -98t96 -39t95 39t36 98t-36 98t-95 39t-96 -38.5t-37 -98.5z" />
<glyph unicode="&#xb1;" horiz-adv-x="763" d="M80 37v121h604v-121h-604zM86 479v129h229v236h131v-236h232v-129h-232v-235h-131v235h-229z" />
<glyph unicode="&#xb2;" horiz-adv-x="671" d="M33 614v17l334 332q53 53 80.5 103t27.5 108q0 57 -34.5 93t-100.5 36t-106.5 -36t-63.5 -102l-104 33q31 98 101.5 152.5t174.5 54.5q115 0 182.5 -64.5t67.5 -166.5q0 -72 -38 -136.5t-101 -128.5l-129 -127q-43 -39 -60.5 -51t-36.5 -24q23 2 41.5 3t38 2t33.5 1h254 v-99h-561z" />
<glyph unicode="&#xb3;" horiz-adv-x="663" d="M23 768l98 49q27 -49 72 -80.5t116 -31.5q86 0 131 48t45 124q0 78 -46 124t-134 46q-35 0 -58.5 -5.5t-39.5 -13.5l-10 16l165 197l16.5 16.5l20.5 20.5t25 22q-18 -2 -44 -4t-31 -2h-15h-240v99h492v-9l-164 -200q-10 -14 -20.5 -23.5t-19.5 -17.5t-22 -17 q111 -8 176.5 -75.5t65.5 -178.5q0 -127 -82 -199.5t-209 -72.5q-106 0 -180 46t-108 122z" />
<glyph unicode="&#xb4;" horiz-adv-x="1024" d="M453 1020l139 395h164l-191 -395h-112z" />
<glyph unicode="&#xb6;" horiz-adv-x="1280" d="M104 1004q0 80 28 150.5t79 123.5t126 84t171 31h584v-1393h-144v1266h-164v-1266h-145v621h-131q-96 0 -171 30.5t-126 82.5t-79 122t-28 148zM262 1008q0 -117 65.5 -188.5t182.5 -71.5h129v518h-129q-117 0 -182.5 -71t-65.5 -187z" />
<glyph unicode="&#xb7;" horiz-adv-x="413" d="M96 500q0 47 34 78.5t77 31.5q45 0 78.5 -31.5t33.5 -78.5t-33.5 -80t-78.5 -33q-43 0 -77 33t-34 80z" />
<glyph unicode="&#xb8;" horiz-adv-x="1024" d="M317 -354l84 51q16 -33 41 -56.5t74 -23.5q39 0 67.5 24.5t28.5 71.5q0 41 -27.5 70t-84.5 29h-43v188h94v-109q66 -10 118 -56t52 -130q0 -43 -16.5 -77t-44 -56.5t-63.5 -34.5t-73 -12q-80 0 -132 36t-75 85z" />
<glyph unicode="&#xb9;" horiz-adv-x="430" d="M37 1292v101h268v-779h-115v678h-153z" />
<glyph unicode="&#xba;" horiz-adv-x="929" d="M86 674q0 80 29.5 148.5t81 118.5t121 79t147.5 29t147.5 -29t120.5 -79t81 -118.5t30 -148.5t-30 -148.5t-81 -119t-120.5 -79t-147.5 -28.5t-147.5 28.5t-121 79t-81 119t-29.5 148.5zM223 674q0 -117 65.5 -188.5t176.5 -71.5t176.5 71.5t65.5 188.5q0 115 -66 187.5 t-176 72.5q-111 0 -176.5 -73t-65.5 -187z" />
<glyph unicode="&#xbb;" horiz-adv-x="815" d="M78 76l196 332l-196 331h149l191 -323v-17l-191 -323h-149zM397 76l197 332l-197 331h148l192 -323v-17l-192 -323h-148z" />
<glyph unicode="&#xbc;" horiz-adv-x="1802" d="M43 1274v119h317v-916h-135v797h-182zM342 0l860 1393h148l-861 -1393h-147zM1016 156v75l612 699h19v-668h104v-106h-104v-154h-134v154h-497zM1165 256q74 4 97.5 5t42.5 1h208v283q0 27 2.5 72t4.5 65q-12 -18 -24.5 -36.5t-28 -39t-31.5 -41.5l-166 -207 q-20 -23 -51 -52.5t-54 -49.5z" />
<glyph unicode="&#xbd;" horiz-adv-x="1910" d="M43 1274v119h317v-916h-135v797h-182zM342 0l860 1393h148l-861 -1393h-147zM1159 0v18l395 392q61 63 94 121.5t33 123.5q0 68 -41 111t-118 43q-76 0 -124 -42t-77 -120l-121 39q35 115 118 179.5t206 64.5q135 0 214 -77t79 -196q0 -86 -44 -161.5t-120 -149.5 l-150 -149q-12 -14 -51 -44t-61 -47q27 4 48 6.5t43.5 3.5t39.5 1h297v-117h-660z" />
<glyph unicode="&#xbe;" horiz-adv-x="2015" d="M29 657l116 58q29 -59 82.5 -96t139.5 -37q98 0 151 56t53 146q0 92 -54 146.5t-157 54.5q-41 0 -68.5 -6t-47.5 -14l-11 18l195 229q6 8 43 45q14 12 29 27q-20 -2 -41 -4q-16 -2 -34.5 -3t-31.5 -1h-280v117h579v-13l-194 -235q-12 -16 -36 -37t-36 -29 q129 -10 207 -90t78 -209q0 -74 -26 -133t-72 -101t-108 -63.5t-136 -21.5q-127 0 -213 54t-127 142zM555 0l860 1393h148l-861 -1393h-147zM1229 156v75l612 699h19v-668h104v-106h-104v-154h-134v154h-497zM1378 256q74 4 97.5 5t42.5 1h208v283q0 27 2.5 72t4.5 65 q-12 -18 -24.5 -36.5t-28 -39t-31.5 -41.5l-166 -207q-20 -23 -51 -52.5t-54 -49.5z" />
<glyph unicode="&#xbf;" horiz-adv-x="962" d="M102 375q0 82 27 149.5t75 118.5t115.5 82t149.5 37v248h137v-363h-67q-68 0 -122.5 -21.5t-91 -58.5t-56 -86t-19.5 -106q0 -123 70.5 -191.5t185.5 -68.5q104 0 169.5 43t112.5 139l117 -66q-49 -123 -153.5 -185t-245.5 -62q-90 0 -165 28.5t-128 79.5t-82 123 t-29 160zM432 1296q0 47 32 79t75 32t76.5 -32t33.5 -79t-33.5 -77.5t-76.5 -30.5t-75 30.5t-32 77.5z" />
<glyph unicode="&#xc0;" horiz-adv-x="1341" d="M76 0l577 1407h25l590 -1407h-156l-127 313h-639l-125 -313h-145zM397 440h537l-215 533q-10 25 -19.5 53.5t-17.5 53t-12 41t-4 18.5q0 -2 -5.5 -18.5t-13.5 -41t-17 -52.5t-20 -52zM418 1929h164l139 -395h-113z" />
<glyph unicode="&#xc1;" horiz-adv-x="1341" d="M76 0l577 1407h25l590 -1407h-156l-127 313h-639l-125 -313h-145zM397 440h537l-215 533q-10 25 -19.5 53.5t-17.5 53t-12 41t-4 18.5q0 -2 -5.5 -18.5t-13.5 -41t-17 -52.5t-20 -52zM610 1534l140 395h163l-190 -395h-113z" />
<glyph unicode="&#xc2;" horiz-adv-x="1341" d="M76 0l577 1407h25l590 -1407h-156l-127 313h-639l-125 -313h-145zM393 1544l262 395h19l262 -395h-119l-151 207l-154 -207h-119zM397 440h537l-215 533q-10 25 -19.5 53.5t-17.5 53t-12 41t-4 18.5q0 -2 -5.5 -18.5t-13.5 -41t-17 -52.5t-20 -52z" />
<glyph unicode="&#xc3;" horiz-adv-x="1341" d="M76 0l577 1407h25l590 -1407h-156l-127 313h-639l-125 -313h-145zM334 1565q6 111 59 169t135 58q49 0 85 -18.5t73 -47.5q43 -35 62.5 -47t48.5 -12q41 0 60.5 28.5t25.5 92.5l110 -10q-6 -111 -57 -168.5t-137 -57.5q-47 0 -84 18.5t-74 47.5q-43 35 -62.5 46t-48.5 11 q-74 0 -86 -121zM397 440h537l-215 533q-10 25 -19.5 53.5t-17.5 53t-12 41t-4 18.5q0 -2 -5.5 -18.5t-13.5 -41t-17 -52.5t-20 -52z" />
<glyph unicode="&#xc4;" horiz-adv-x="1341" d="M76 0l577 1407h25l590 -1407h-156l-127 313h-639l-125 -313h-145zM397 440h537l-215 533q-10 25 -19.5 53.5t-17.5 53t-12 41t-4 18.5q0 -2 -5.5 -18.5t-13.5 -41t-17 -52.5t-20 -52zM397 1649q0 39 29 66.5t66 27.5t65.5 -27.5t28.5 -66.5q0 -41 -28.5 -68t-65.5 -27 t-66 27t-29 68zM745 1649q0 39 29 66.5t66 27.5t65.5 -27.5t28.5 -66.5q0 -41 -28.5 -68t-65.5 -27t-66 27t-29 68z" />
<glyph unicode="&#xc5;" horiz-adv-x="1341" d="M76 0l577 1407h25l590 -1407h-156l-127 313h-639l-125 -313h-145zM397 440h537l-215 533q-10 25 -19.5 53.5t-17.5 53t-12 41t-4 18.5q0 -2 -5.5 -18.5t-13.5 -41t-17 -52.5t-20 -52zM451 1724q0 43 16 81t46 65.5t69 44t84 16.5t83.5 -16.5t68.5 -44t46.5 -65.5 t16.5 -81t-16.5 -79.5t-46.5 -65.5t-68.5 -45t-83.5 -16t-84 16t-69 45t-46 65.5t-16 79.5zM557 1724q0 -53 31 -83.5t78 -30.5t77.5 30.5t30.5 83.5t-30.5 84t-77.5 31t-78 -30.5t-31 -84.5z" />
<glyph unicode="&#xc6;" horiz-adv-x="1951" d="M55 0l930 1393h817v-131h-698v-498h622v-129h-622v-504h727v-131h-877v287h-553l-186 -287h-160zM489 414h465v581q0 27 2 56.5t7.5 71.5t5.5 44q0 -2 -19.5 -39.5t-35 -64.5t-29.5 -49z" />
<glyph unicode="&#xc7;" horiz-adv-x="1492" d="M111 696q0 158 56 289t152.5 225.5t227.5 146.5t278 52q373 0 553 -270l-112 -82q-68 98 -178.5 157.5t-262.5 59.5q-121 0 -224 -44t-178 -121t-117 -182.5t-42 -230.5t42 -230.5t117 -183t178.5 -121.5t223.5 -44q154 0 268.5 61.5t188.5 171.5l117 -80 q-92 -135 -234.5 -208.5t-328.5 -77.5h-13v-93q66 -10 118 -56t52 -130q0 -43 -16 -77t-44 -56.5t-63.5 -34.5t-72.5 -12q-80 0 -132.5 36t-74.5 85l82 51q16 -33 41.5 -56.5t74.5 -23.5q39 0 68 24.5t29 71.5q0 41 -28 70t-85 29h-43v176q-131 16 -244.5 75.5t-196.5 151.5 t-130 214t-47 267z" />
<glyph unicode="&#xc8;" horiz-adv-x="1187" d="M190 0v1393h848v-131h-700v-498h625v-129h-625v-504h729v-131h-877zM383 1929h164l139 -395h-113z" />
<glyph unicode="&#xc9;" horiz-adv-x="1187" d="M190 0v1393h848v-131h-700v-498h625v-129h-625v-504h729v-131h-877zM573 1534l140 395h164l-191 -395h-113z" />
<glyph unicode="&#xca;" horiz-adv-x="1187" d="M190 0v1393h848v-131h-700v-498h625v-129h-625v-504h729v-131h-877zM352 1544l262 395h19l262 -395h-119l-151 207l-154 -207h-119z" />
<glyph unicode="&#xcb;" horiz-adv-x="1187" d="M190 0v1393h848v-131h-700v-498h625v-129h-625v-504h729v-131h-877zM360 1649q0 39 29 66.5t66 27.5t65.5 -27.5t28.5 -66.5q0 -41 -28.5 -68t-65.5 -27t-66 27t-29 68zM709 1649q0 39 28.5 66.5t65.5 27.5t65.5 -27.5t28.5 -66.5q0 -41 -28.5 -68t-65.5 -27t-65.5 27 t-28.5 68z" />
<glyph unicode="&#xcc;" horiz-adv-x="542" d="M25 1929h163l140 -395h-113zM197 0v1393h149v-1393h-149z" />
<glyph unicode="&#xcd;" horiz-adv-x="542" d="M197 0v1393h149v-1393h-149zM217 1534l139 395h164l-190 -395h-113z" />
<glyph unicode="&#xce;" horiz-adv-x="542" d="M0 1544l262 395h19l262 -395h-119l-152 207l-153 -207h-119zM197 0v1393h149v-1393h-149z" />
<glyph unicode="&#xcf;" horiz-adv-x="542" d="M4 1649q0 39 28.5 66.5t65.5 27.5t66 -27.5t29 -66.5q0 -41 -29 -68t-66 -27t-65.5 27t-28.5 68zM197 0v1393h149v-1393h-149zM352 1649q0 39 29 66.5t65 27.5q37 0 66 -27.5t29 -66.5q0 -41 -29 -68t-66 -27t-65.5 27t-28.5 68z" />
<glyph unicode="&#xd0;" horiz-adv-x="1392" d="M29 633v129h161v631h355q170 0 306 -51.5t232.5 -143.5t147.5 -220t51 -282t-51 -281.5t-146.5 -220t-232.5 -143.5t-307 -51h-355v633h-161zM338 133h197q150 0 260 41t184 116t110.5 178t36.5 228t-36.5 228.5t-110.5 178.5t-184.5 116t-259.5 41h-197v-498h375v-129 h-375v-500z" />
<glyph unicode="&#xd1;" horiz-adv-x="1460" d="M190 0v1407h25l832 -983q14 -16 29.5 -37.5t40 -55.5t26.5 -36q0 2 -3 42t-5 66.5t-2 49.5v940h137v-1407h-25l-831 983q-14 16 -29.5 36.5t-40.5 53.5t-27 37q0 -4 2.5 -21.5t6.5 -65.5t4 -69v-940h-140zM410 1565q6 111 59 169t135 58q49 0 85 -18.5t73 -47.5 q43 -35 62.5 -47t47.5 -12q41 0 60.5 28.5t25.5 92.5l111 -10q-6 -111 -57 -168.5t-138 -57.5q-47 0 -83.5 18.5t-73.5 47.5q-43 35 -62.5 46t-48.5 11q-74 0 -86 -121z" />
<glyph unicode="&#xd2;" d="M111 696q0 158 56 289t152.5 225.5t227.5 146.5t278 52q150 0 280 -52t227.5 -146.5t153.5 -225.5t56 -289t-56 -289t-153.5 -225t-227.5 -146t-280 -52q-147 0 -278 52t-227.5 146t-152.5 225.5t-56 288.5zM264 696q0 -125 42 -230.5t117 -183t178 -121.5t224 -44 q123 0 225.5 44t178.5 121.5t118 183t42 230.5t-42 230.5t-118 183.5t-178.5 122t-225.5 44q-121 0 -224 -44t-178 -122t-117 -183.5t-42 -230.5zM578 1929h163l140 -395h-113z" />
<glyph unicode="&#xd3;" d="M111 696q0 158 56 289t152.5 225.5t227.5 146.5t278 52q150 0 280 -52t227.5 -146.5t153.5 -225.5t56 -289t-56 -289t-153.5 -225t-227.5 -146t-280 -52q-147 0 -278 52t-227.5 146t-152.5 225.5t-56 288.5zM264 696q0 -125 42 -230.5t117 -183t178 -121.5t224 -44 q123 0 225.5 44t178.5 121.5t118 183t42 230.5t-42 230.5t-118 183.5t-178.5 122t-225.5 44q-121 0 -224 -44t-178 -122t-117 -183.5t-42 -230.5zM770 1534l139 395h164l-190 -395h-113z" />
<glyph unicode="&#xd4;" d="M111 696q0 158 56 289t152.5 225.5t227.5 146.5t278 52q150 0 280 -52t227.5 -146.5t153.5 -225.5t56 -289t-56 -289t-153.5 -225t-227.5 -146t-280 -52q-147 0 -278 52t-227.5 146t-152.5 225.5t-56 288.5zM264 696q0 -125 42 -230.5t117 -183t178 -121.5t224 -44 q123 0 225.5 44t178.5 121.5t118 183t42 230.5t-42 230.5t-118 183.5t-178.5 122t-225.5 44q-121 0 -224 -44t-178 -122t-117 -183.5t-42 -230.5zM553 1544l262 395h19l262 -395h-119l-152 207l-153 -207h-119z" />
<glyph unicode="&#xd5;" d="M111 696q0 158 56 289t152.5 225.5t227.5 146.5t278 52q150 0 280 -52t227.5 -146.5t153.5 -225.5t56 -289t-56 -289t-153.5 -225t-227.5 -146t-280 -52q-147 0 -278 52t-227.5 146t-152.5 225.5t-56 288.5zM264 696q0 -125 42 -230.5t117 -183t178 -121.5t224 -44 q123 0 225.5 44t178.5 121.5t118 183t42 230.5t-42 230.5t-118 183.5t-178.5 122t-225.5 44q-121 0 -224 -44t-178 -122t-117 -183.5t-42 -230.5zM498 1565q6 111 59 169t135 58q49 0 85 -18.5t73 -47.5q43 -35 62.5 -47t48.5 -12q41 0 60 28.5t26 92.5l110 -10 q-6 -111 -57 -168.5t-137 -57.5q-47 0 -84 18.5t-74 47.5q-43 35 -62.5 46t-48.5 11q-74 0 -86 -121z" />
<glyph unicode="&#xd6;" d="M111 696q0 158 56 289t152.5 225.5t227.5 146.5t278 52q150 0 280 -52t227.5 -146.5t153.5 -225.5t56 -289t-56 -289t-153.5 -225t-227.5 -146t-280 -52q-147 0 -278 52t-227.5 146t-152.5 225.5t-56 288.5zM264 696q0 -125 42 -230.5t117 -183t178 -121.5t224 -44 q123 0 225.5 44t178.5 121.5t118 183t42 230.5t-42 230.5t-118 183.5t-178.5 122t-225.5 44q-121 0 -224 -44t-178 -122t-117 -183.5t-42 -230.5zM557 1649q0 39 28.5 66.5t65.5 27.5t65.5 -27.5t28.5 -66.5q0 -41 -28.5 -68t-65.5 -27t-65.5 27t-28.5 68zM905 1649 q0 39 29 66.5t65 27.5q37 0 66 -27.5t29 -66.5q0 -41 -29 -68t-66 -27t-65.5 27t-28.5 68z" />
<glyph unicode="&#xd7;" horiz-adv-x="712" d="M82 328l188 186l-188 188l88 89l188 -189l187 186l86 -86l-189 -186l189 -186l-88 -86l-187 184l-188 -186z" />
<glyph unicode="&#xd8;" d="M106 63l170 170q-78 92 -121.5 209t-43.5 254q0 154 56 285t152.5 226.5t227.5 148.5t278 53q135 0 253 -43t212 -123l168 168l88 -84l-170 -168q78 -92 122 -208.5t44 -254.5q0 -154 -56 -284.5t-153.5 -226t-227.5 -148.5t-280 -53q-133 0 -251.5 43t-211.5 123 l-169 -170zM264 696q0 -104 31 -195t86 -163l809 807q-72 61 -164 96t-201 35q-121 0 -224 -44t-178 -122t-117 -183.5t-42 -230.5zM461 246q72 -61 165 -95t199 -34q123 0 225.5 44t178.5 121.5t118 183t42 230.5q0 104 -31 195.5t-86 163.5z" />
<glyph unicode="&#xd9;" horiz-adv-x="1355" d="M178 475v918h148v-908q0 -186 94 -278t258 -92q162 0 257 92t95 278v908h148v-918q0 -123 -38 -215t-105.5 -153.5t-159 -92t-197.5 -30.5t-197.5 30.5t-159 92t-105.5 153.5t-38 215zM430 1929h164l139 -395h-112z" />
<glyph unicode="&#xda;" horiz-adv-x="1355" d="M178 475v918h148v-908q0 -186 94 -278t258 -92q162 0 257 92t95 278v908h148v-918q0 -123 -38 -215t-105.5 -153.5t-159 -92t-197.5 -30.5t-197.5 30.5t-159 92t-105.5 153.5t-38 215zM621 1534l139 395h164l-191 -395h-112z" />
<glyph unicode="&#xdb;" horiz-adv-x="1355" d="M178 475v918h148v-908q0 -186 94 -278t258 -92q162 0 257 92t95 278v908h148v-918q0 -123 -38 -215t-105.5 -153.5t-159 -92t-197.5 -30.5t-197.5 30.5t-159 92t-105.5 153.5t-38 215zM406 1544l262 395h18l262 -395h-119l-151 207l-154 -207h-118z" />
<glyph unicode="&#xdc;" horiz-adv-x="1355" d="M178 475v918h148v-908q0 -186 94 -278t258 -92q162 0 257 92t95 278v908h148v-918q0 -123 -38 -215t-105.5 -153.5t-159 -92t-197.5 -30.5t-197.5 30.5t-159 92t-105.5 153.5t-38 215zM408 1649q0 39 28.5 66.5t65.5 27.5t65.5 -27.5t28.5 -66.5q0 -41 -28.5 -68 t-65.5 -27t-65.5 27t-28.5 68zM756 1649q0 39 28.5 66.5t65.5 27.5t65.5 -27.5t28.5 -66.5q0 -41 -28.5 -68t-65.5 -27t-65.5 27t-28.5 68z" />
<glyph unicode="&#xdd;" horiz-adv-x="1249" d="M70 1393h168l335 -617q10 -20 20.5 -43.5t19 -44t20.5 -53.5q12 33 20.5 53.5t18.5 44t20 43.5l334 617h154l-473 -877v-516h-152v512zM575 1534l140 395h164l-191 -395h-113z" />
<glyph unicode="&#xde;" horiz-adv-x="1196" d="M190 0v1393h148v-258h260q111 0 203 -27t156.5 -81t100.5 -135t36 -190q0 -106 -36 -186t-100.5 -134t-155.5 -82t-204 -28h-260v-272h-148zM338 403h252q352 0 352 299q0 301 -352 302h-252v-601z" />
<glyph unicode="&#xdf;" horiz-adv-x="1105" d="M152 0v1118q0 100 29.5 173t79.5 121t116.5 70.5t138.5 22.5t135.5 -22.5t111.5 -67.5t75.5 -112.5t27.5 -155.5q0 -106 -48 -189.5t-148 -126.5q154 -29 247 -133t93 -270q0 -94 -29 -175t-83 -139.5t-134 -91t-182 -32.5q-49 0 -87 8t-67 18l25 119q27 -10 49 -15 t63 -5q147 0 221 87t74 228q0 154 -95 240t-273 82v118q111 12 174 83t63 190q0 127 -62.5 183t-150.5 56q-43 0 -83 -14t-70.5 -45t-49 -82t-18.5 -125v-1116h-143z" />
<glyph unicode="&#xe0;" horiz-adv-x="964" d="M92 242q0 66 25.5 113.5t68.5 79.5t101.5 47.5t126.5 15.5h264v20q0 123 -52.5 175t-146.5 52q-90 0 -148.5 -34.5t-99.5 -87.5l-88 79q55 76 140.5 120t205.5 44q70 0 131.5 -20.5t105.5 -63.5t69.5 -108.5t25.5 -153.5v-520h-143l6 127q-43 -66 -110.5 -104.5 t-170.5 -38.5q-135 0 -223 62.5t-88 195.5zM229 1415h164l139 -395h-112zM231 248q0 -147 205 -148q49 0 93 13.5t77 37t52.5 57.5t19.5 75v106h-254q-82 0 -137.5 -32.5t-55.5 -108.5z" />
<glyph unicode="&#xe1;" horiz-adv-x="964" d="M92 242q0 66 25.5 113.5t68.5 79.5t101.5 47.5t126.5 15.5h264v20q0 123 -52.5 175t-146.5 52q-90 0 -148.5 -34.5t-99.5 -87.5l-88 79q55 76 140.5 120t205.5 44q70 0 131.5 -20.5t105.5 -63.5t69.5 -108.5t25.5 -153.5v-520h-143l6 127q-43 -66 -110.5 -104.5 t-170.5 -38.5q-135 0 -223 62.5t-88 195.5zM231 248q0 -147 205 -148q49 0 93 13.5t77 37t52.5 57.5t19.5 75v106h-254q-82 0 -137.5 -32.5t-55.5 -108.5zM422 1020l139 395h164l-190 -395h-113z" />
<glyph unicode="&#xe2;" horiz-adv-x="964" d="M92 242q0 66 25.5 113.5t68.5 79.5t101.5 47.5t126.5 15.5h264v20q0 123 -52.5 175t-146.5 52q-90 0 -148.5 -34.5t-99.5 -87.5l-88 79q55 76 140.5 120t205.5 44q70 0 131.5 -20.5t105.5 -63.5t69.5 -108.5t25.5 -153.5v-520h-143l6 127q-43 -66 -110.5 -104.5 t-170.5 -38.5q-135 0 -223 62.5t-88 195.5zM207 1030l262 395h18l263 -395h-119l-152 207l-153 -207h-119zM231 248q0 -147 205 -148q49 0 93 13.5t77 37t52.5 57.5t19.5 75v106h-254q-82 0 -137.5 -32.5t-55.5 -108.5z" />
<glyph unicode="&#xe3;" horiz-adv-x="964" d="M92 242q0 66 25.5 113.5t68.5 79.5t101.5 47.5t126.5 15.5h264v20q0 123 -52.5 175t-146.5 52q-90 0 -148.5 -34.5t-99.5 -87.5l-88 79q55 76 140.5 120t205.5 44q70 0 131.5 -20.5t105.5 -63.5t69.5 -108.5t25.5 -153.5v-520h-143l6 127q-43 -66 -110.5 -104.5 t-170.5 -38.5q-135 0 -223 62.5t-88 195.5zM178 1051q6 111 54.5 169t123.5 58q43 0 74 -17.5t66 -48.5q39 -33 57 -45t43 -12q61 0 74 119l106 -10q-6 -111 -52 -168.5t-124 -57.5q-43 0 -73.5 19.5t-65.5 48.5q-39 35 -57.5 46t-43.5 11q-63 0 -75 -121zM231 248 q0 -147 205 -148q49 0 93 13.5t77 37t52.5 57.5t19.5 75v106h-254q-82 0 -137.5 -32.5t-55.5 -108.5z" />
<glyph unicode="&#xe4;" horiz-adv-x="964" d="M92 242q0 66 25.5 113.5t68.5 79.5t101.5 47.5t126.5 15.5h264v20q0 123 -52.5 175t-146.5 52q-90 0 -148.5 -34.5t-99.5 -87.5l-88 79q55 76 140.5 120t205.5 44q70 0 131.5 -20.5t105.5 -63.5t69.5 -108.5t25.5 -153.5v-520h-143l6 127q-43 -66 -110.5 -104.5 t-170.5 -38.5q-135 0 -223 62.5t-88 195.5zM209 1194q0 39 28.5 66.5t65.5 27.5t65.5 -27.5t28.5 -66.5q0 -41 -28.5 -67.5t-65.5 -26.5t-65.5 26.5t-28.5 67.5zM231 248q0 -147 205 -148q49 0 93 13.5t77 37t52.5 57.5t19.5 75v106h-254q-82 0 -137.5 -32.5t-55.5 -108.5z M557 1194q0 39 28.5 66.5t65.5 27.5t65.5 -27.5t28.5 -66.5q0 -41 -28.5 -67.5t-65.5 -26.5t-65.5 26.5t-28.5 67.5z" />
<glyph unicode="&#xe5;" horiz-adv-x="964" d="M92 242q0 66 25.5 113.5t68.5 79.5t101.5 47.5t126.5 15.5h264v20q0 123 -52.5 175t-146.5 52q-90 0 -148.5 -34.5t-99.5 -87.5l-88 79q55 76 140.5 120t205.5 44q70 0 131.5 -20.5t105.5 -63.5t69.5 -108.5t25.5 -153.5v-520h-143l6 127q-43 -66 -110.5 -104.5 t-170.5 -38.5q-135 0 -223 62.5t-88 195.5zM231 248q0 -147 205 -148q49 0 93 13.5t77 37t52.5 57.5t19.5 75v106h-254q-82 0 -137.5 -32.5t-55.5 -108.5zM262 1196q0 43 16.5 81t46 65.5t68.5 44t84 16.5t84 -16.5t68.5 -44t46 -65.5t16.5 -81t-16.5 -80t-46 -65.5 t-68.5 -45t-84 -16.5t-84 16.5t-68.5 45t-46 65.5t-16.5 80zM369 1196q0 -53 30.5 -84t77.5 -31t78 31t31 84t-31 84t-78 31t-77.5 -31t-30.5 -84z" />
<glyph unicode="&#xe6;" horiz-adv-x="1636" d="M92 240q0 66 25.5 113.5t69.5 78.5t102.5 45.5t124.5 14.5h264v24q0 125 -52.5 177t-146.5 52q-90 0 -148.5 -34.5t-99.5 -87.5l-88 79q55 76 139.5 120t206.5 44q104 0 176 -50t105 -142q53 82 141 137t203 55q102 0 183 -36.5t136.5 -101t83 -153t25.5 -190.5h-723 q12 -123 93 -202t223 -79q96 0 161.5 33t108.5 80l86 -86q-59 -66 -145 -106.5t-209 -40.5q-131 0 -225.5 53t-147.5 145q-16 -51 -51 -88t-81 -61.5t-100.5 -36.5t-109.5 -12q-72 0 -132.5 15t-104.5 47t-68.5 80t-24.5 114zM231 246q0 -145 205 -146q49 0 93 13.5t77 37 t52.5 57.5t19.5 75v102h-254q-80 0 -136.5 -30.5t-56.5 -108.5zM823 492h574q-4 49 -23.5 95t-54.5 82t-85 56t-118 20q-121 0 -197.5 -71.5t-95.5 -181.5z" />
<glyph unicode="&#xe7;" horiz-adv-x="960" d="M96 424q0 92 34 173t93.5 141.5t140 94t175.5 33.5q115 0 194.5 -40t138.5 -111l-102 -84q-39 51 -96.5 79.5t-134.5 28.5q-68 0 -122.5 -23.5t-92 -66.5t-58 -100t-20.5 -125t20.5 -125t58 -99t92 -66.5t122.5 -24.5q88 0 145 31.5t98 78.5l99 -84 q-59 -72 -140.5 -111.5t-197.5 -39.5h-2v-93q66 -10 118 -56t52 -130q0 -43 -17.5 -77t-45 -56.5t-62.5 -34.5t-72 -12q-82 0 -133 36t-76 85l84 51q16 -33 42 -56.5t75 -23.5q39 0 66.5 24.5t27.5 71.5q0 41 -26.5 70t-86.5 29h-43v180q-76 16 -140 55t-110.5 95.5t-72 128 t-25.5 153.5z" />
<glyph unicode="&#xe8;" horiz-adv-x="1056" d="M98 424q0 92 34 173t92.5 141.5t139 94t173.5 33.5q102 0 183 -36.5t136 -102t83 -156t24 -194.5h-721q14 -123 94 -198t221 -75q96 0 161.5 33t106.5 80l88 -86q-59 -66 -145 -106.5t-211 -40.5q-104 0 -189 33.5t-144.5 93t-92.5 140.5t-33 173zM244 485h575 q-4 55 -23.5 102.5t-55 82.5t-86 55t-117.5 20q-123 0 -200 -71.5t-93 -188.5zM283 1415h163l140 -395h-113z" />
<glyph unicode="&#xe9;" horiz-adv-x="1056" d="M98 424q0 92 34 173t92.5 141.5t139 94t173.5 33.5q102 0 183 -36.5t136 -102t83 -156t24 -194.5h-721q14 -123 94 -198t221 -75q96 0 161.5 33t106.5 80l88 -86q-59 -66 -145 -106.5t-211 -40.5q-104 0 -189 33.5t-144.5 93t-92.5 140.5t-33 173zM244 485h575 q-4 55 -23.5 102.5t-55 82.5t-86 55t-117.5 20q-123 0 -200 -71.5t-93 -188.5zM475 1020l139 395h164l-190 -395h-113z" />
<glyph unicode="&#xea;" horiz-adv-x="1056" d="M98 424q0 92 34 173t92.5 141.5t139 94t173.5 33.5q102 0 183 -36.5t136 -102t83 -156t24 -194.5h-721q14 -123 94 -198t221 -75q96 0 161.5 33t106.5 80l88 -86q-59 -66 -145 -106.5t-211 -40.5q-104 0 -189 33.5t-144.5 93t-92.5 140.5t-33 173zM244 485h575 q-4 55 -23.5 102.5t-55 82.5t-86 55t-117.5 20q-123 0 -200 -71.5t-93 -188.5zM258 1030l262 395h19l262 -395h-119l-152 207l-153 -207h-119z" />
<glyph unicode="&#xeb;" horiz-adv-x="1056" d="M98 424q0 92 34 173t92.5 141.5t139 94t173.5 33.5q102 0 183 -36.5t136 -102t83 -156t24 -194.5h-721q14 -123 94 -198t221 -75q96 0 161.5 33t106.5 80l88 -86q-59 -66 -145 -106.5t-211 -40.5q-104 0 -189 33.5t-144.5 93t-92.5 140.5t-33 173zM244 485h575 q-4 55 -23.5 102.5t-55 82.5t-86 55t-117.5 20q-123 0 -200 -71.5t-93 -188.5zM262 1194q0 39 28.5 66.5t65.5 27.5t66 -27.5t29 -66.5q0 -41 -29 -67.5t-66 -26.5t-65.5 26.5t-28.5 67.5zM610 1194q0 39 29 66.5t66 27.5t65.5 -27.5t28.5 -66.5q0 -41 -28.5 -67.5 t-65.5 -26.5t-66 26.5t-29 67.5z" />
<glyph unicode="&#xec;" horiz-adv-x="454" d="M-20 1415h163l140 -395h-113zM156 0v848h143v-848h-143z" />
<glyph unicode="&#xed;" horiz-adv-x="454" d="M156 0v848h143v-848h-143zM172 1020l139 395h164l-190 -395h-113z" />
<glyph unicode="&#xee;" horiz-adv-x="454" d="M-43 1030l262 395h19l262 -395h-119l-152 207l-153 -207h-119zM156 0v848h143v-848h-143z" />
<glyph unicode="&#xef;" horiz-adv-x="454" d="M-23 1194q0 39 29 66.5t66 27.5t65.5 -27.5t28.5 -66.5q0 -41 -28.5 -67.5t-65.5 -26.5t-66 26.5t-29 67.5zM156 0v848h143v-848h-143zM289 1194q0 39 28.5 66.5t65.5 27.5t65.5 -27.5t28.5 -66.5q0 -41 -28.5 -67.5t-65.5 -26.5t-65.5 26.5t-28.5 67.5z" />
<glyph unicode="&#xf0;" horiz-adv-x="1091" d="M96 424q0 94 35 175t95.5 140.5t139 93t166.5 33.5q90 0 159 -34.5t118 -98.5q-33 123 -98.5 234.5t-143.5 210.5l-139 -134l-74 72l144 139q-43 47 -86 89t-84 79l80 88q43 -35 89 -75.5t93 -89.5l137 135l76 -74l-141 -137q66 -78 126 -169t106 -194.5t73.5 -219.5 t27.5 -241q0 -100 -34.5 -185t-94 -146.5t-141.5 -96t-176 -34.5q-96 0 -178 33.5t-143.5 93t-96.5 140.5t-35 173zM244 424q0 -68 22.5 -126t62.5 -100t96 -67t124 -25t123 25t94 69t60.5 103t21.5 129q0 68 -21.5 124t-60.5 97t-94.5 64.5t-122.5 23.5q-68 0 -124 -23.5 t-96 -66.5t-62.5 -101t-22.5 -126z" />
<glyph unicode="&#xf1;" horiz-adv-x="1056" d="M152 0v848h143l-4 -174q41 92 122 142t183 50q141 0 229 -92t88 -258v-516h-143v500q0 113 -52 174t-159 61q-117 0 -190.5 -70.5t-73.5 -197.5v-467h-143zM225 1051q6 111 54.5 169t123.5 58q43 0 74 -17.5t66 -48.5q39 -33 57 -45t43 -12q61 0 74 119l106 -10 q-6 -111 -52 -168.5t-124 -57.5q-43 0 -73.5 19.5t-65.5 48.5q-39 35 -57.5 46t-42.5 11q-63 0 -76 -121z" />
<glyph unicode="&#xf2;" horiz-adv-x="1091" d="M98 424q0 92 35 173t95.5 141.5t142.5 94t178 33.5q94 0 176 -33.5t141.5 -94t94 -141.5t34.5 -173t-34.5 -173t-94 -140.5t-141.5 -93t-176 -33.5q-96 0 -178 33.5t-142.5 93t-95.5 140.5t-35 173zM244 424q0 -68 22.5 -126t62.5 -101t96 -67t124 -24t123 24t95 67 t61.5 101t21.5 126t-21.5 126t-61.5 101t-95.5 66.5t-122.5 23.5q-68 0 -124 -23.5t-96 -66.5t-62.5 -101t-22.5 -126zM297 1415h164l139 -395h-113z" />
<glyph unicode="&#xf3;" horiz-adv-x="1091" d="M98 424q0 92 35 173t95.5 141.5t142.5 94t178 33.5q94 0 176 -33.5t141.5 -94t94 -141.5t34.5 -173t-34.5 -173t-94 -140.5t-141.5 -93t-176 -33.5q-96 0 -178 33.5t-142.5 93t-95.5 140.5t-35 173zM244 424q0 -68 22.5 -126t62.5 -101t96 -67t124 -24t123 24t95 67 t61.5 101t21.5 126t-21.5 126t-61.5 101t-95.5 66.5t-122.5 23.5q-68 0 -124 -23.5t-96 -66.5t-62.5 -101t-22.5 -126zM489 1020l140 395h164l-191 -395h-113z" />
<glyph unicode="&#xf4;" horiz-adv-x="1091" d="M98 424q0 92 35 173t95.5 141.5t142.5 94t178 33.5q94 0 176 -33.5t141.5 -94t94 -141.5t34.5 -173t-34.5 -173t-94 -140.5t-141.5 -93t-176 -33.5q-96 0 -178 33.5t-142.5 93t-95.5 140.5t-35 173zM244 424q0 -68 22.5 -126t62.5 -101t96 -67t124 -24t123 24t95 67 t61.5 101t21.5 126t-21.5 126t-61.5 101t-95.5 66.5t-122.5 23.5q-68 0 -124 -23.5t-96 -66.5t-62.5 -101t-22.5 -126zM272 1030l263 395h18l262 -395h-119l-151 207l-154 -207h-119z" />
<glyph unicode="&#xf5;" horiz-adv-x="1091" d="M98 424q0 92 35 173t95.5 141.5t142.5 94t178 33.5q94 0 176 -33.5t141.5 -94t94 -141.5t34.5 -173t-34.5 -173t-94 -140.5t-141.5 -93t-176 -33.5q-96 0 -178 33.5t-142.5 93t-95.5 140.5t-35 173zM244 424q0 -68 22.5 -126t62.5 -101t96 -67t124 -24t123 24t95 67 t61.5 101t21.5 126t-21.5 126t-61.5 101t-95.5 66.5t-122.5 23.5q-68 0 -124 -23.5t-96 -66.5t-62.5 -101t-22.5 -126zM246 1051q6 111 54 169t124 58q43 0 73.5 -17.5t65.5 -48.5q39 -33 57.5 -45t43.5 -12q61 0 73 119l107 -10q-6 -111 -52.5 -168.5t-123.5 -57.5 q-43 0 -74 19.5t-66 48.5q-39 35 -57 46t-43 11q-63 0 -76 -121z" />
<glyph unicode="&#xf6;" horiz-adv-x="1091" d="M98 424q0 92 35 173t95.5 141.5t142.5 94t178 33.5q94 0 176 -33.5t141.5 -94t94 -141.5t34.5 -173t-34.5 -173t-94 -140.5t-141.5 -93t-176 -33.5q-96 0 -178 33.5t-142.5 93t-95.5 140.5t-35 173zM244 424q0 -68 22.5 -126t62.5 -101t96 -67t124 -24t123 24t95 67 t61.5 101t21.5 126t-21.5 126t-61.5 101t-95.5 66.5t-122.5 23.5q-68 0 -124 -23.5t-96 -66.5t-62.5 -101t-22.5 -126zM276 1194q0 39 29 66.5t66 27.5t65.5 -27.5t28.5 -66.5q0 -41 -28.5 -67.5t-65.5 -26.5t-66 26.5t-29 67.5zM625 1194q0 39 28.5 66.5t65.5 27.5 t65.5 -27.5t28.5 -66.5q0 -41 -28.5 -67.5t-65.5 -26.5t-65.5 26.5t-28.5 67.5z" />
<glyph unicode="&#xf7;" horiz-adv-x="712" d="M55 453v127h602v-127h-602zM248 250q0 47 31.5 77.5t74.5 30.5t75 -30.5t32 -77.5q0 -45 -32 -75t-75 -30t-74.5 30t-31.5 75zM248 778q0 45 31.5 75t74.5 30t75 -30t32 -75q0 -47 -32 -77.5t-75 -30.5t-74.5 30.5t-31.5 77.5z" />
<glyph unicode="&#xf8;" horiz-adv-x="1091" d="M68 47l120 111q-43 55 -67.5 122.5t-24.5 143.5q0 92 35 173t96.5 141.5t143.5 94t178 33.5q84 0 157.5 -27.5t133.5 -76.5l118 110l66 -73l-117 -109q41 -55 64.5 -122.5t23.5 -143.5q0 -92 -34.5 -173t-94 -140.5t-141.5 -93t-176 -33.5q-86 0 -160 27.5t-133 76.5 l-123 -115zM240 424q0 -96 51 -176l452 428q-80 68 -194 67q-70 0 -126 -23.5t-97 -66.5t-63.5 -101t-22.5 -128zM350 172q80 -68 199 -68q68 0 124 25t96 68t62.5 101t22.5 126q0 49 -13.5 94t-35.5 80z" />
<glyph unicode="&#xf9;" horiz-adv-x="1054" d="M143 328v520h144v-506q0 -111 52 -170t157 -59q121 0 192.5 71.5t71.5 196.5v467h143v-848h-143l4 172q-41 -90 -120 -140t-183 -50q-141 0 -229.5 91t-88.5 255zM276 1415h164l140 -395h-113z" />
<glyph unicode="&#xfa;" horiz-adv-x="1054" d="M143 328v520h144v-506q0 -111 52 -170t157 -59q121 0 192.5 71.5t71.5 196.5v467h143v-848h-143l4 172q-41 -90 -120 -140t-183 -50q-141 0 -229.5 91t-88.5 255zM467 1020l139 395h164l-190 -395h-113z" />
<glyph unicode="&#xfb;" horiz-adv-x="1054" d="M143 328v520h144v-506q0 -111 52 -170t157 -59q121 0 192.5 71.5t71.5 196.5v467h143v-848h-143l4 172q-41 -90 -120 -140t-183 -50q-141 0 -229.5 91t-88.5 255zM252 1030l262 395h18l263 -395h-119l-152 207l-153 -207h-119z" />
<glyph unicode="&#xfc;" horiz-adv-x="1054" d="M143 328v520h144v-506q0 -111 52 -170t157 -59q121 0 192.5 71.5t71.5 196.5v467h143v-848h-143l4 172q-41 -90 -120 -140t-183 -50q-141 0 -229.5 91t-88.5 255zM256 1194q0 39 28.5 66.5t65.5 27.5t65.5 -27.5t28.5 -66.5q0 -41 -28.5 -67.5t-65.5 -26.5t-65.5 26.5 t-28.5 67.5zM604 1194q0 39 29 66.5t65 27.5q37 0 66 -27.5t29 -66.5q0 -41 -29 -67.5t-66 -26.5t-65.5 26.5t-28.5 67.5z" />
<glyph unicode="&#xfd;" horiz-adv-x="946" d="M51 848h158l240 -526q8 -20 16 -45t12 -48q6 -25 10 -51q4 27 11 51q4 23 11 44.5t17 48.5l222 526h147l-553 -1282h-147l217 506zM432 1020l139 395h164l-190 -395h-113z" />
<glyph unicode="&#xfe;" horiz-adv-x="1130" d="M156 -434v1913h143v-805q45 86 127 139t201 53q86 0 160.5 -33.5t129 -92t85 -139.5t30.5 -175q0 -96 -30.5 -177t-86 -139.5t-130 -92t-160.5 -33.5q-115 0 -200 54t-126 136v-608h-143zM293 426q0 -70 21.5 -127t60.5 -99t94 -65.5t123 -23.5q135 0 214 88t79 227 q0 68 -20.5 126t-59.5 99t-92.5 64.5t-120.5 23.5q-68 0 -123 -23.5t-94 -64.5t-60.5 -99t-21.5 -126z" />
<glyph unicode="&#xff;" horiz-adv-x="946" d="M51 848h158l240 -526q8 -20 16 -45t12 -48q6 -25 10 -51q4 27 11 51q4 23 11 44.5t17 48.5l222 526h147l-553 -1282h-147l217 506zM219 1194q0 39 28.5 66.5t65.5 27.5t66 -27.5t29 -66.5q0 -41 -29 -67.5t-66 -26.5t-65.5 26.5t-28.5 67.5zM567 1194q0 39 29 66.5 t66 27.5t65.5 -27.5t28.5 -66.5q0 -41 -28.5 -67.5t-65.5 -26.5t-66 26.5t-29 67.5z" />
<glyph unicode="&#x152;" horiz-adv-x="2021" d="M111 696q0 154 50 282t145 220t231.5 143.5t306.5 51.5h1028v-131h-698v-498h622v-129h-622v-504h727v-131h-1057q-170 0 -305.5 51t-230.5 143.5t-146 220.5t-51 281zM264 696q0 -125 37 -228t110.5 -178t184.5 -116t260 -41h170v1127h-170q-150 0 -260.5 -41t-184 -116 t-110.5 -178.5t-37 -228.5z" />
<glyph unicode="&#x153;" horiz-adv-x="1804" d="M96 424q0 92 35 173t96.5 141.5t143.5 94t178 33.5q133 0 228 -65.5t143 -171.5q45 106 139 171.5t223 65.5q102 0 184 -36.5t137.5 -102t83 -156t23.5 -194.5h-721q16 -123 94 -197t220 -74q96 0 161.5 32t106.5 79l88 -88q-59 -66 -145.5 -105.5t-208.5 -39.5 q-145 0 -241.5 65.5t-143.5 169.5q-47 -104 -143.5 -169.5t-227.5 -65.5q-96 0 -178 33.5t-143.5 93t-96.5 140.5t-35 173zM244 424q0 -68 22.5 -126t62.5 -100t96 -67t124 -25t123 25t94 67t60.5 100t21.5 126t-21.5 126t-60.5 101t-94.5 66.5t-122.5 23.5 q-68 0 -124 -23.5t-96 -66.5t-62.5 -101t-22.5 -126zM991 485h574q-10 111 -79 185.5t-202 74.5q-123 0 -199.5 -70.5t-93.5 -189.5z" />
<glyph unicode="&#x178;" horiz-adv-x="1249" d="M70 1393h168l335 -617q10 -20 20.5 -43.5t19 -44t20.5 -53.5q12 33 20.5 53.5t18.5 44t20 43.5l334 617h154l-473 -877v-516h-152v512zM362 1649q0 39 29 66.5t66 27.5t65.5 -27.5t28.5 -66.5q0 -41 -28.5 -68t-65.5 -27t-66 27t-29 68zM711 1649q0 39 28.5 66.5 t65.5 27.5t65.5 -27.5t28.5 -66.5q0 -41 -28.5 -68t-65.5 -27t-65.5 27t-28.5 68z" />
<glyph unicode="&#x2c6;" horiz-adv-x="1024" d="M240 1030l262 395h18l262 -395h-118l-152 207l-154 -207h-118z" />
<glyph unicode="&#x2dc;" horiz-adv-x="1024" d="M213 1051q6 111 54 169t124 58q43 0 74 -17.5t65 -48.5q39 -33 57.5 -45t43.5 -12q61 0 74 119l106 -10q-6 -111 -52 -168.5t-124 -57.5q-43 0 -74 19.5t-65 48.5q-39 35 -57.5 46t-43.5 11q-63 0 -76 -121z" />
<glyph unicode="&#x2000;" horiz-adv-x="969" />
<glyph unicode="&#x2001;" horiz-adv-x="1939" />
<glyph unicode="&#x2002;" horiz-adv-x="969" />
<glyph unicode="&#x2003;" horiz-adv-x="1939" />
<glyph unicode="&#x2004;" horiz-adv-x="646" />
<glyph unicode="&#x2005;" horiz-adv-x="484" />
<glyph unicode="&#x2006;" horiz-adv-x="323" />
<glyph unicode="&#x2007;" horiz-adv-x="323" />
<glyph unicode="&#x2008;" horiz-adv-x="242" />
<glyph unicode="&#x2009;" horiz-adv-x="387" />
<glyph unicode="&#x200a;" horiz-adv-x="107" />
<glyph unicode="&#x2010;" horiz-adv-x="585" d="M94 410v129h395v-129h-395z" />
<glyph unicode="&#x2011;" horiz-adv-x="585" d="M94 410v129h395v-129h-395z" />
<glyph unicode="&#x2012;" horiz-adv-x="585" d="M94 410v129h395v-129h-395z" />
<glyph unicode="&#x2013;" horiz-adv-x="806" d="M72 334v127h661v-127h-661z" />
<glyph unicode="&#x2014;" horiz-adv-x="1275" d="M72 334v127h1132v-127h-1132z" />
<glyph unicode="&#x2018;" horiz-adv-x="407" d="M96 1079q0 23 7.5 42.5t19.5 41.5l113 230h77l-69 -215q27 -8 47 -35t20 -62q0 -47 -32.5 -77.5t-73.5 -30.5q-43 0 -76 30.5t-33 75.5z" />
<glyph unicode="&#x2019;" horiz-adv-x="407" d="M94 987l70 213q-29 10 -48.5 37t-19.5 61q0 47 33 78t74 31q43 0 75.5 -30.5t32.5 -78.5q0 -35 -26 -81l-113 -230h-78z" />
<glyph unicode="&#x201a;" horiz-adv-x="407" d="M94 -211l70 215q-29 8 -48.5 35t-19.5 63q0 47 33 78t74 31q43 0 75.5 -30.5t32.5 -78.5q0 -35 -26 -84l-113 -229h-78z" />
<glyph unicode="&#x201c;" horiz-adv-x="731" d="M96 1079q0 23 7.5 42.5t19.5 41.5l113 230h77l-69 -215q27 -8 47 -35t20 -62q0 -47 -32.5 -77.5t-73.5 -30.5q-43 0 -76 30.5t-33 75.5zM422 1079q0 23 7 42.5t20 41.5l112 230h78l-70 -215q27 -8 47.5 -35t20.5 -62q0 -47 -33 -77.5t-76 -30.5q-41 0 -73.5 30.5 t-32.5 75.5z" />
<glyph unicode="&#x201d;" horiz-adv-x="731" d="M94 987l70 213q-29 10 -48.5 37t-19.5 61q0 47 33 78t74 31q43 0 75.5 -30.5t32.5 -78.5q0 -35 -26 -81l-113 -230h-78zM418 987l69 213q-27 10 -46 37t-19 61q0 47 32.5 78t73.5 31q43 0 76 -30.5t33 -78.5q0 -20 -8 -39.5t-19 -41.5l-114 -230h-78z" />
<glyph unicode="&#x201e;" horiz-adv-x="731" d="M94 -211l70 215q-29 8 -48.5 35t-19.5 63q0 47 33 78t74 31q43 0 75.5 -30.5t32.5 -78.5q0 -35 -26 -84l-113 -229h-78zM418 -211l69 215q-27 8 -46 35t-19 63q0 47 32.5 78t73.5 31q43 0 76 -30.5t33 -78.5q0 -20 -8 -40.5t-19 -43.5l-114 -229h-78z" />
<glyph unicode="&#x2022;" horiz-adv-x="569" d="M92 537q0 41 15.5 76.5t42 61t61.5 41t74 15.5t74.5 -15.5t62.5 -41t42 -61t15 -76.5t-15 -76t-42 -60.5t-62.5 -41t-74.5 -15.5t-74 15.5t-61.5 41t-42 60.5t-15.5 76z" />
<glyph unicode="&#x2026;" horiz-adv-x="1261" d="M96 98q0 47 34 79t77 32q45 0 78.5 -32t33.5 -79t-33.5 -79.5t-78.5 -32.5q-43 0 -77 32.5t-34 79.5zM520 98q0 47 34 79t77 32q45 0 78.5 -32t33.5 -79t-33.5 -79.5t-78.5 -32.5q-43 0 -77 32.5t-34 79.5zM944 98q0 47 34 79t77 32q45 0 78.5 -32t33.5 -79t-33.5 -79.5 t-78.5 -32.5q-43 0 -77 32.5t-34 79.5z" />
<glyph unicode="&#x202f;" horiz-adv-x="387" />
<glyph unicode="&#x2039;" horiz-adv-x="495" d="M78 401v17l192 321h148l-197 -329l197 -334h-148z" />
<glyph unicode="&#x203a;" horiz-adv-x="495" d="M78 76l196 332l-196 331h149l191 -323v-17l-191 -323h-149z" />
<glyph unicode="&#x205f;" horiz-adv-x="484" />
<glyph unicode="&#x20ac;" horiz-adv-x="1271" d="M82 342v102h149q-2 18 -3 36t-1 36t1 35.5t3 34.5h-149v102h172q27 82 75 148.5t114.5 113.5t145.5 73t167 26q137 0 235.5 -49.5t169.5 -143.5l-104 -84q-53 72 -123 112t-178 40q-125 0 -215 -63.5t-131 -172.5h440v-102h-471q-6 -35 -6 -70q0 -39 6 -72h471v-102h-440 q41 -106 132 -168.5t214 -62.5q117 0 188.5 41t122.5 116l109 -78q-68 -104 -170.5 -155t-249.5 -51q-88 0 -167 25.5t-144.5 72.5t-114.5 113.5t-76 146.5h-172z" />
<glyph unicode="&#x2122;" horiz-adv-x="1484" d="M98 1298v95h480v-95h-185v-514h-110v514h-185zM709 784v619h18l295 -330l293 330h18v-619h-110v383l-191 -227h-20l-191 227v-383h-112z" />
<glyph unicode="&#x25fc;" horiz-adv-x="849" d="M0 0v850h850v-850h-850z" />
</font>
</defs>
</svg>
